<?xml version="1.0" encoding="UTF-8"?>
<svg id="Layer_2" xmlns="http://www.w3.org/2000/svg" xmlns:xlink="http://www.w3.org/1999/xlink" viewBox="0 0 70.23 70.23">
  <defs>
    <style>
      .cls-1 {
        fill: #fff;
      }

      .cls-2 {
        fill: url(#linear-gradient);
      }
    </style>
    <linearGradient id="linear-gradient" x1="0" y1="35.12" x2="70.23" y2="35.12" gradientUnits="userSpaceOnUse">
      <stop offset="0" stop-color="#6241ff"/>
      <stop offset=".56" stop-color="#8047ff"/>
      <stop offset="1" stop-color="#787fff"/>
    </linearGradient>
  </defs>
  <g id="Layer_1-2" data-name="Layer_1">
    <circle class="cls-2" cx="35.12" cy="35.12" r="35.12"/>
    <path class="cls-1" d="M40.84,47.77c-.7,0-2.52.06-3.03-.24-.97-.57-1.78-1.47-1.82-2.37-.25-5.8-.13-11.61-.13-17.69,1.04,0,1.87,0,2.7,0,5.17-.02,5.23-.12,4.88-5.22-.1-1.44-.66-2.13-2.15-2.09-1.76.05-3.53.01-5.49.01,0-1.97-.03-3.66,0-5.35.04-1.59-.7-2.29-2.26-2.21-.62.03-1.24,0-1.87,0-3.07.01-3.25.19-3.25,3.35,0,8.94,0,17.88,0,26.82,0,8.24,4.11,12.37,12.28,12.37,3.77,0,3.83-.06,3.83-3.72,0-3.53-.12-3.65-3.69-3.65Z"/>
  </g>
</svg>