<?xml version="1.0" encoding="UTF-8"?>
<svg width="1200pt" height="1200pt" version="1.1" viewBox="0 0 1200 1200" xmlns="http://www.w3.org/2000/svg">
 <g>
  <path d="m796.8 93.602h-396c-61.199 0-112.8 51.602-112.8 112.8v786c0 61.199 51.602 112.8 112.8 112.8h397.2c61.199 0 112.8-51.602 112.8-112.8v-786c-1.1992-62.398-50.402-112.8-114-112.8zm54 897.6c0 30-24 52.801-52.801 52.801h-396c-30 0-52.801-24-52.801-52.801v-784.8c0-30 24-52.801 52.801-52.801l78 0.003906v3.6016 3.6016c0 22.801 19.199 40.801 40.801 40.801h156c22.801 0 40.801-19.199 40.801-40.801v-4.8047-3.6016h79.199c30 0 52.801 24 52.801 52.801z"/>
  <path d="m645.6 408v33.602h-45.602v112.8h147.6v45.598h44.398v-192zm123.6 124.8h-102v-102h102z"/>
  <path d="m441.6 600h45.602v-45.602h67.199l-0.003906-146.4h-146.4v146.4h33.602v45.602zm-10.801-67.199v-102h102v102h-102z"/>
  <path d="m746.4 746.4h45.602v45.602h-45.602z"/>
  <path d="m600 600h79.199v45.602h-79.199z"/>
  <path d="m554.4 554.4h45.602v45.602h-45.602z"/>
  <path d="m453.6 453.6h56.398v56.398h-56.398z"/>
  <path d="m792 645.6h-48 2.3984v-45.602h-45.602v45.602h2.3984-2.3984v45.602h2.3984l-103.2-0.003906v56.398h-45.602v3.6016-60h45.602v-45.602h-45.602v-45.598h-45.602v45.602h-100.8v146.4h146.4v-3.6016 3.6016h123.6v-45.602h68.398v-56.398h-2.3984 48zm-259.2 123.6h-102v-102h102z"/>
  <path d="m690 453.6h56.398v56.398h-56.398z"/>
  <path d="m453.6 690h56.398v56.398h-56.398z"/>
 </g>
</svg>
