<?xml version="1.0" encoding="UTF-8"?>
<svg id="Layer_1" xmlns="http://www.w3.org/2000/svg" xmlns:xlink="http://www.w3.org/1999/xlink" viewBox="0 0 190.95 87.47">
  <defs>
    <style>
      .cls-1 {
        fill: #fff;
      }

      .cls-2 {
        fill: url(#linear-gradient);
      }
    </style>
    <linearGradient id="linear-gradient" x1="174.94" y1="8.01" x2="190.95" y2="8.01" gradientUnits="userSpaceOnUse">
      <stop offset="0" stop-color="#6241ff"/>
      <stop offset=".56" stop-color="#8047ff"/>
      <stop offset="1" stop-color="#787fff"/>
    </linearGradient>
  </defs>
  <g>
    <path class="cls-1" d="M67.75,19.46h-2.44c-2.01,0-3.63,1.63-3.63,3.63v.29c-.67-.48-1.39-.91-2.1-1.29-8.75-4.93-17.6-4.97-25.92.86-8.42,5.83-11.76,14.2-9.85,24.24,1.91,9.8,8.08,16.07,17.69,18.6,6.89,1.87,13.39.43,19.94-3.73-.48,3.87,1.29,4.4,4.06,4.35,1.2,0,3.16.05,4.16,0,.96-.05,1.67-1,1.67-2.06,0-1.63.05-3.25.05-4.88V23.1c0-2.01-1.63-3.63-3.63-3.63ZM60.63,47.34c-2.68,7.17-10.33,11.05-17.45,8.85-7.22-2.25-11.52-9.66-9.76-16.93,1.77-7.32,8.99-12.34,16.4-10.42,3.63.91,7.41,3.11,10.04,5.79.62.62,1.24,1.24,1.82,1.91v8.42c-.33.57-.67,1.39-1.05,2.39Z"/>
    <path class="cls-1" d="M111.61,20.85c-7.89-3.59-16.07-2.68-23.53,1.24-.24-.53-.57-.96-1-1.34-1-.86-2.34-1.2-3.68-1.2h-1.43c-2.01,0-3.63,1.58-3.63,3.59v36.39s0,0,0,0v7.69c-.07,5.88-.15,11.33,0,17.55,0,.48,0,.85,0,1.18v.1h0c.06,1.5.43,1.4,2.1,1.4h5.16c1.81,0,2.28,0,2.4-1.4h.01v-.26c.02-.45.03-1,.03-1.74-.06-3.18-.04-6.36-.03-9.53v-11.59c1.48.96,1.89,1.04,3.57,1.71,12.77,5.16,26.78-.19,32.09-12.29,5.31-12.1.05-26.06-12.05-31.51ZM105.1,56.43c-6.83,1.58-12.37-1.09-17.1-5.44v-6.95c.17-1.97.04-4,.22-5.74.91-7.13,8.7-10.66,15.64-9.66,6.41.91,11.57,6.41,11.96,12.62.48,7.36-3.73,13.53-10.71,15.16Z"/>
    <path class="cls-1" d="M16.65,56.05c-.94,0-3.38.08-4.06-.32-1.3-.76-2.39-1.96-2.44-3.17-.34-7.77-.17-15.56-.17-23.71,1.39,0,2.5,0,3.62,0,6.93-.02,7.01-.16,6.53-7-.14-1.93-.89-2.86-2.88-2.81-2.36.06-4.73.02-7.36.02,0-2.63-.04-4.9.01-7.17.05-2.13-.93-3.07-3.03-2.96-.83.04-1.67,0-2.5,0C.26,8.94,0,9.18,0,13.42,0,25.4,0,37.38,0,49.36c0,11.04,5.51,16.58,16.46,16.58,5.05,0,5.13-.08,5.13-4.99,0-4.73-.16-4.89-4.94-4.9Z"/>
    <path class="cls-1" d="M184.74,19.6c-.93.01-1.77,0-2.79.02-2.99-.05-3.82,1.14-3.81,3.88.07,13.13.07,26.26,0,39.38-.01,2.61.88,3.76,3.65,3.79.75,0,1.21,0,1.84,0,4.1-.02,4.33-.3,4.33-4.27,0-6.46,0-12.92,0-19.38s-.06-13.34.03-20c.03-2.38-.91-3.46-3.26-3.43Z"/>
    <path class="cls-1" d="M161.58,20.71c-7.89-3.54-16.07-2.68-23.53,1.24-1.63-3.3-6.55-2.82-8.51-1.53-.67.48-1.2,1.67-1.2,2.58v39.26c-.05,7.94-.14,14.35.05,22.24q-.05,2.87,1.96,2.87h5.21q2.44,0,2.44-3.44c-.05-3.3-.05-6.65,0-9.95h.05v-11.14c1.1.62,2.3,1.2,3.49,1.67,12.77,5.21,26.78-.19,32.09-12.29,5.31-12.1.05-26.06-12.05-31.51ZM155.07,56.33c-6.79,1.53-12.29-1.05-17.02-5.4v-7.32c.1-1.87-.05-3.78.14-5.4.86-7.13,8.7-10.71,15.64-9.71,6.41.91,11.57,6.41,11.96,12.62.48,7.41-3.73,13.58-10.71,15.21Z"/>
  </g>
  <circle class="cls-2" cx="182.94" cy="8.01" r="8.01"/>
</svg>