<?xml version="1.0" encoding="UTF-8"?>
<svg version="1.1" viewBox="0 0 1440 1440" width="1280" height="1280" xmlns="http://www.w3.org/2000/svg">
<path transform="translate(448,140)" d="m0 0h550l36 2 30 2 36 5 30 8 22 8 21 11 16 10 14 10 17 14 12 12 16 20 10 15 13 23 7 16 8 24 5 23 4 25 3 41 2 37v549l-1 27-4 53-5 30-6 21-10 27-10 20-9 14-12 17-10 13-17 17-13 10-12 9-17 10-23 12-15 6-13 4-25 6-25 4-44 4-29 1h-566l-30-1-46-5-27-5-20-5-21-8-24-12-17-11-11-8-11-9-8-7-14-14-10-13-12-18-8-13-8-16-9-22-7-25-4-21-3-18-3-38-1-24v-571l2-37 2-27 5-32 5-22 9-26 9-19 9-15 10-15 11-14 4-5 5-5 7-8 11-9 12-10 15-10 14-8 19-10 33-11 24-5 27-4z" fill="#0375D7"/>
<path transform="translate(1102,842)" d="m0 0h1v16l-5 21-11 33-10 25v7l5 2 10-6 8-8 11-15 11-18 8-17 8-24 3 1-1 7 1 14-1 1 1 5-1 5 4 1 2 4 1 6 6 12v6l3 2v2h2l2 9 1 2 1 5 2 7 3 3 2 5 3 7v4l2 1 1-3 5 2-2 4 1 2 1 7 10 6 4 1v4h8v2l7 1 6-1 4-4 4 2v2l5 1 4-2 3 1v2l7 2 4 1-1-5 5-1v4l11 1v-2l3-2 4 1 5 3 2 3 5 3h4l1-3 3 1 1-8 6-12h1v83l-2 19-5 27-6 20-9 24-10 20-9 14-12 17-10 13-17 17-13 10-12 9-17 10-23 12-15 6-13 4-25 6-25 4-44 4-29 1h-566l-30-1-46-5-27-5-20-5-21-8-24-12-17-11-11-8-11-9-8-7-14-14-10-13-12-18-8-13-8-16-9-22-7-25-4-21-3-18v-36l1-20 3-1-1-2 2-2 1 2 8-2h3l4 5 8-1 6 2 1 2 4 2v2l8-1 10 3 9 1h10l9 1 11-2h7l11-5 5-1v-2l5-1v-2h2v-3l4-1v-2h3l1-5 5-2h3l1-3 10-4 4-1 1 2 6-1 4-5 4-4 2-4h2v-2l7-2 4-7 9-3 4-5 4-3h2l2-6 10-7 3-4h2l2-6 3-7 5-6 4-2 1-2h2l2-4h2v-3h3v-2l3-2 2-1v-3l-4-2-6-5-7-5-2-3-6-3-6-7-8-7 4-1 10 7 11 7 14 9 23 12 20 11 27 12 46 18 47 14 25 6 34 6 23 3 31 3h58l36-3h13l6-2 9-1 13-1 7-1 4-1 24-4 1-1 11-1 2 1 9-4h11v-2l12-3 10-1 6-1v-2l7-1 14-4 16-6 13-5 24-10 21-10 22-12 14-8 20-13 8-6 3-4h2v-10l-3-3v-2l-7-2-9 1-45 17-37 12-40 11-40 9-27 5-34 5-26 3-15 1h-28l2-1v-2l9-2 20-2h16l16-3 19-2 16-2 11-2 17-3 16-4 11-3 10-2 9-2 8-3 7-1 10-4 5-1 18-6 11-3 9-3 13-5 7-3 8-2 10-4 17-6h5l13 6 5 4 4 8v9l4-4h2v-2h2l1-5 3-4 4-7z" fill="#043189"/>
<path transform="translate(1294,571)" d="m0 0h1l2 49 1-37h2v412l-1 27-2 26h-1l-1-20v-47l-5 11-2 8h-3l-3 3-4-2-5-3-2-3-4-2-6 1v2l-5 1-6-2v-4l-4 2v4h-6l-5-3v-2l-7 1-1 2-1-2-3-1-3-3-3 1-2 3-8 1-6-3h-8l1-5-3 1-3-3-7-3-2-4-1-5-2-2 3-2-2-4h-2l-1 4-3-2-1-8-3-4-2-5-3-3-2-7v-5l-2-3v-7h-2v-2l-4-2-1-9-2-2-4-10-1-7-4-1-1-11 1-5-1-13 2-1-3-3-2 10-8 21-10 19-11 16-9 11-10 9-6 3-5-2-1-1v-7l12-31 10-30 4-18v-15l-7 11-6 10-1 3h-2v2h-2l-2 4h-2l-1-5-1-7-5-7-8-4-9-3-6 1-16 6-10 4-9 2-8 4-9 3-14 4-7 3-15 4-5 2-11 2-1 2-11 2-9 3-8 2-13 3-16 4-14 3-7 1-11 2-16 2-19 2-18 3h-17l-22 3h-4v2h26l34-3 28-4 35-6 37-8 34-9 39-12 31-11 22-9 7-2 9 1 4 2 4 5v7l-1 3h-2l-2 4-7 6-18 11-14 9-22 12-23 11-16 7-19 8-18 6-11 4-10 2-2-1v2l-7 2-11 1-10 2v2l-5 1-9 1-7 3-2-1-10 1-7 2-15 3h-6l-4 1-14 2h-7l-10 2-1 1h-17l-36 3h-56l-39-4-37-6-28-6-31-9-17-5-19-7-28-11-23-10-17-8-23-13-16-8-10-7-16-10-5-4h-3l11 10 5 5 5 3 5 5 6 4 6 5-1 5-4 1v2h-3v3l-4 4h-2l-1 3-6 4-3 4-2 6-3 6-5 5-9 6-3 6-6 4-5 6-8 1-1 5h-2l-1 3-7 1v2l-2 1-4 7-5 5-4 2-4-1v-2l-11 5-3 1-1 2h-3l-1 2h-4l-1 5h-3v2l-4 1v3h-2v2l-5 1v2l-10 4-6 3h-10l-11 2-9-1h-9l-7-1-12-3h-6l-1-2-4-2v-2l-9-1-5 1-5-6-6 2-4 1h-2v3h-2l-2 39h-1l-2-22-1-24v-355l1-9h1l1 144 1 36 1 6v4h2l4-12v-9l3-19v-5l12-3 2 4 9 1 2 3v3l5-3 3-4h4l1-2 6-2 4-2v-4l6-1 2 7 2 1v2l6-2 2 1 1-5 3-2 8-1v-2l5-3 5-7v-3l3-2v-5l4-4 1-2h2v-2l3-2-1-7 3-1 3 1v-9l2-4 6-3 3-6 3-1 2-7 2-3 5 1h3l3-3 3-8 4-22v-7l2-11 2-5 3-19h1l1 81 2 13h28l3-3 1-130 8-5 11-5 18-5h18l9 3 7 8 3 6 2 12v112l1 6 9 1 22-1 1-132 9-6 13-5 12-4h21l9 3 6 5 4 8 2 8 1 119 2 4 6 1 19-1 4-2 1-32v-52h2v-6l3 1 3 7 2 4 2 10 2 7 4 1 2 3v-6l4-1 4 3h3v-2h2l2-11 3-6 4-2 2 46 2 13 5 12 4 6 11 7 7 3 7 2h23l12-2 18-6 23-12h2l3 13 3 1 21 1 2-1 1-3h2v-71l1-3 3-1 4 9v7l3 1v9l8-2h4l3 6 4 5 1 1 8-1h7v2l4 1h5l7 2 5 1 13 1 7 3 14-1 5-3 5-8-1-5-5-4-10-4-7-3-4-1v-2l-6-2-4-3v-3h-2v-2l-4-1-10-4-10-6-8-9-2-7h-2v-3h2l7 11 9 7 16 8 28 11 15 7 7 6 2 5v10l-3 8-5 6-9 4h-3v2l-2 1h-25l-8-1-1-1-25-5-5-2-5 1-1 15 3 7 12 5 16 4 20 3h14l20-4 13-5 9-6 5-4 7-11 4-11 1-7v-13l-3-10-5-8v-2l-4-2-8-6-8-5v-1h7l8 3 7 3 10 9 5 10 4 6 3 1 3-6 2-17 3-15 4-4v97h2v2h31l1-13v-14l1-8 1-74 3 3 3 16 2 5 2 11 3 9 7 1 6-4 1-16 1-5 2-13 4-12 2-10 3-2-1 8-3 15v37l4 19 7 16 8 11 10 9 16 9 18 5h33l17-4 10-4 2-10v-9l-2-4h-7l-18 4h-25l-16-5-9-6-7-8-5-12-3-17v-21l3-20 6-15 9-10 12-6 15-3h18l20 4 3 2-1 2h-2l-1 7 4 3 11-2 5-3 8-4 5-3 3-3 5 1 5 3 5 2 9 4 3 2 11 1 9 2 5 3h8l1 2 12-1 1 3h7l4-2h9v-2l6-3h5v-4h2v-2l8-2 3 1-1 4 1 3h5l2-5 3-1 3 9 5 8h3l1-1 1-27z" fill="#0449A1"/>
<path transform="translate(832,544)" d="m0 0h22l13 2 13 3 5 1 8 3 21 7 13-9 8-2h7l9-1 15 2v2l9 3h8l8 3v2h4l2-2 3 1 6 7v2l9-2 5-4 12-7 9-4 15-4 13-2h17l16 2 1 1 11 2 7 2 3 1v2l4 1 7 11 2 3-1 8-4 4-6 3-2 3h-3v-2h2l1-4 1-3v-13l-4-6-9-3-16-3-9-1h-13l-18 3-14 5-9 5-11 9-9 11-8 16-3 1-7 28-1 11-1 4-1 13-5 4-4 1-5-2-5-13-2-10-3-13-2-6-1 72-1 8v20l-2 7-7 1h-20l-4-1v-2h-2l-1-96-3 6-2 12-2 17-4 7-4-2-6-9-3-7-10-9-7-3-7-2h-5l9 6 9 7 6 10 3 10v13l-3 14-6 11-6 7-10 7-12 5-16 4-7 1h-14l-20-3-16-4-12-5-4-8 1-15 2-2 6 1 21 5 7 1 1 1 8 1h27v-2l12-5 5-6 2-7v-10l-3-6-6-5-24-10-25-10-12-7-7-6-6-9v-2h-2v3h2l5 10 9 8 6 3 10 4 4 2v2h2l1 3 9 5v2l6 1 7 3 10 4 5 5-1 6-4 6-3 3-7 1-11 1-6-3-13-1-11-2-1-1h-7l-3-2 1-2-10 1-7 1-1-1h-1l-2-6-3-6-7 2h-4l-1-9-2-1-2-10-3-5h-2l-1 74h-2l-1 4-2 1-21-1-4-2-2-8v-5l-25 13-20 7h-8l-2 1h-23l-12-4-10-6-5-5-6-10-3-10-1-9-1-24v-22l-5 5-4 14h-2v2h-3l-1 2-4-4h-3l1 8-3-3v-2l-5-1-2-7-2-10-2-4-3-7-2-1v6h-2l1 4v48l-1 32-5 3-23 1-4-3-1-3-1-119-4-13-4-5-7-4-5-1h-21l-15 5-11 5-7 4-1 132-1 1-26 1-5-2-2-8v-110l-2-12-5-9-6-5-7-2h-18l-21 6-15 8-1 130-4 4h-28l-2-4-1-10-1-74-3 16-1 1-2 11v9l-5 23-4 8-5 2v-2h-5v2l-2 1-2 6-4 4-3 5-5 2-1 7-1 5h-5l1 7-4 2v2h-2l-1 5-3 1v5l-4 3 1 2-7 9-4 1v2l-11 3-1 5-8 1v-2l-3-1-1-6-5 1-1 4-4 2-6 2-5 1-2 4-3 3h-3l-2-5-9-2-3-3-11 2 1 7-3 17v9l-4 14-1-2h-2l-2-10-1-40v-124l2-3 1-2h2l-1-12 2-7 2-15 1-7 3-16 4-4h8v-5l2 1 2 5 8 3v-2l6 2 4 1 9-1 6-4v-2l5-1v2h2l1 2h5l2-1h5l3-4 4 1 3 1v-2l9-1 3-3 9-1 3-1h7l5-5 3 1 8 1 5 8 2 1v2l5 1 1-15 4-16 3-5 7-6h19l10 5 4 3 11-2 14-5 6-3 16-3 19 1 12 3 13 4 13 7 8-1 10-5 9-2v-2l25-5h15l11 1 13 4 9 4 15 9 5 2 3 2v2l4 1 2 5 6 2 1 3 9-1 2-3v-11l2-6 2-3h2l1-3 8-4h20l9 4 5 12 2 4 3 1 1 2 12-1 5-1 12-2 5 3 7 2v2l7 1 4 3h3l1 2 1-16 3-7 1-2h2l2-4 6-3h16l9 1 7 5v3l3 1v2l4 2 3 8v3l4-2 4 3 5-5 4-2h3v-3h5v-2l5-2v-2l12-7 9-3 10-4z" fill="#045AB6"/>
<path transform="translate(448,140)" d="m0 0h550l36 2 30 2 36 5 30 8 22 8 21 11 8 5-3 1 6 4v2l5 2 4 2 7 8 9 7v2l4 2 1 3h2v2l4 2 1 4h3l5 6v2h3l5 5v2h2l3 6v2h2l-1 4-4-1-6-4-5-8-5-2-2 1-6-1v7l-20 4-3-1-4 1-9-3-28 1-8 1-6-2-16-1-14-1-4-2-8-1-3-1-6 2-2-1v-2h-5l-2 1-7-1-8-2-1 1h-16l-3-1v-2l-16 1h-6l-5-1-9-2-6 1h-5l-5-3-6 1-3-1h-16l-3-1v2h-24l-3 1-19-2-11 2-10 1-4 2-7-1-7-2h-7l-5 2-7-3h-8l-5-1-5 1-11-1-9-1h-13l-6-1-3 3-16-2-2-1h-11l-2 2-4 1v-2l-8-1-4-1v2h-6l-4-2-4 1-5-1-7 2-3-1h-5l-5-1v2l-4 1-3-2-5 1h-11l-4 1-6-2-2 1h-12l-6 3h-7l-4-2-7 1h-7l-9-2-12 3-10-2-5-2-5 1-8-1-7 2-6-1-7 1-3-1-7 2-4-1-8 1-8-1-4-1h-12l-4 1-5-3-12 2-13 1-13-1h-10l-3-1-3 1-7 2-9 1v2l-7 1-6 3-4 1-10 1-5-1h-7l-1 1h-5l-1 2h-3v-2h-9l-3-2-18-1-9 3h-5v-2l-9 1-1-1-14-1-5 1-7-4-3-3v2h-4l-1 4-9 2h-7l-4 2h-9l-16 3-15 4 2 3-14 5-4-1v-5h-5l2 1v4l-3 1-6-3v-2l-4-1-1-4 3-4h2l1-4 1-3 3-2 2-8 3-3 1 2h2l2-4 5-5 7-8v-3l4-2v-2l10-2 7-4 14-5 21-10 11-4 13-5h3v-2h7l1-2 13-3 7-5 2-3-3-2h2v-3l19-3z" fill="#028AEF"/>
<path transform="translate(1294,571)" d="m0 0h1l2 49 1-37h2v412h-1l-1-195-2-4-1-52-1-16v27l-1 29-1 15-1 5-5 4-2-1-2-6-2-1-1-4h-3l-2 4-12-2-3-2 1 7-1 2-7 1-3 6-3 3-4-2-3-2-1 5-13-1-10-4-5-4-7-4-8-6-7-1-2-3-3-1v2h-5l-2-7-5 2h-3l-3-5-7-4-2-5 2-2h3l-5-7-1-3-4-1-1 2h-4l-1-13 1-4-1-3-4 1-8 1-12 3-6-2-13-6-3-1-2-1v2h-4v-2l10-3 7-5 13-4 3-3 6-12-1-10-5-5-2-1-1 2-25 5h-25l-16-5-9-6-7-8-5-12-3-17v-21l3-20 6-15 9-10 12-6 15-3h18l20 4 3 2-1 2h-2l-1 7 4 3 11-2 5-3 8-4 5-3 3-3 5 1 5 3 5 2 9 4 3 2 11 1 9 2 5 3h8l1 2 12-1 1 3h7l4-2h9v-2l6-3h5v-4h2v-2l8-2 3 1-1 4 1 3h5l2-5 3-1 3 9 5 8h3l1-1 1-27z" fill="#045AB6"/>
<path transform="translate(303,806)" d="m0 0 7 1 10 6 60 30 38 16 30 11 29 10 4 2 17 4 8 3 11 2v2l9 1 20 5 13 2 33 6 36 5 27 3 47 3h57l52-4 31-4 41-7 37-8 34-9 39-12 31-11 22-9 7-2 9 1 4 2 4 5v7l-1 3h-2l-2 4-7 6-18 11-14 9-22 12-23 11-16 7-19 8-18 6-11 4-10 2-2-1v2l-7 2-11 1-10 2v2l-5 1-9 1-7 3-2-1-10 1-7 2-15 3h-6l-4 1-14 2h-7l-10 2-1 1h-17l-36 3h-56l-39-4-37-6-28-6-31-9-17-5-19-7-28-11-23-10-17-8-23-13-16-8-10-7-16-10-22-16-14-11-13-10-12-11-6-5-2-3 1-7z" fill="#F4F7FC"/>
<path transform="translate(387,552)" d="m0 0h25l12 4 9 6 3 3v2h2l4 6 5-2 18-10 16-6 14-3h26l13 4 11 8 7 9 4 10 2 12v97l-1 32-5 3-23 1-4-3-1-3-1-119-4-13-4-5-7-4-5-1h-21l-15 5-11 5-7 4-1 132-1 1-26 1-5-2-2-8v-110l-2-12-5-9-6-5-7-2h-18l-21 6-15 8-1 130-4 4h-28l-2-4-1-162 5-5h22l4 4 1 2v9l28-14 17-5z" fill="#CBDAF7"/>
<path transform="translate(603,556)" d="m0 0h27l4 4 1 122 3 10 4 5v2l4 2 5 2 6 1h15l17-4 19-9h4v-133l1-1h30l4 4-1 161-2 4-2 1-21-1-4-2-2-8v-5l-25 13-20 7h-8l-2 1h-23l-12-4-10-6-5-5-6-10-3-10-1-9v-130z" fill="#CAD9F7"/>
<path transform="translate(322,838)" d="m0 0 4 1 10 7 9 2 9 5 5 2 15 8 9 5 19 10 11 6 7 3 15 7 13 5 13 6 25 10 11 4v2l8 1 6 2 10 3 3 1 26 7 11 3 14 3 24 5 19 3 11 2 21 2 26 2 15 1h53l25-1 25-3 56-8 7-2 20-4 21-5 8-3 12-3 41-14 21-8 8-3 12-5 9-4 12-5 5-3 8-3 11-5 8-1 4 1 5-3 2 1-8 6-22 14-17 10-19 10-28 13-24 10-18 6-11 4-10 2-2-1v2l-7 2-11 1-10 2v2l-5 1-9 1-7 3-2-1-10 1-7 2-15 3h-6l-4 1-14 2h-7l-10 2-1 1h-17l-36 3h-56l-39-4-37-6-28-6-31-9-17-5-19-7-28-11-23-10-17-8-23-13-16-8-10-7-16-10-22-16-14-11-9-7z" fill="#6A95DA"/>
<path transform="translate(827,552)" d="m0 0h29l21 4 11 4 4 4 1 12-1 7-2 2-10-1-10-3-12-2h-27l-12 3-2 4-3 1-2 10 1 9 4 6 8 7 31 12 16 7 11 6 10 8 6 10 3 10v13l-3 14-6 11-6 7-10 7-12 5-16 4-7 1h-14l-20-3-16-4-12-5-4-8 1-15 2-2 6 1 21 5 7 1 1 1 8 1h27v-2l12-5 5-6 2-7v-10l-3-6-6-5-24-10-25-10-12-7-7-6-7-11-3-8-1-4v-18l4-12 7-9 3-3h2l1-3 12-7 13-4z" fill="#CAD9F7"/>
<path transform="translate(1074,552)" d="m0 0h13l20 3 12 3 5 4 2 4v13l-3 6h-7l-20-4h-18l-15 3-12 6-8 9-6 15-3 20v21l3 17 5 12 8 9 12 6 11 3h25l18-4h7l3 5v9l-2 10-5 3-17 5-8 1h-31l-18-5-16-9-13-12-8-13-6-15-3-16v-37l3-15 5-14 8-13 10-11 11-8 16-7 14-3z" fill="#CADAF7"/>
<path transform="translate(314,823)" d="m0 0 10 2 7 3 12 7 12 6 13 8 11 6v2l8 2 10 6 6 2v2l6 2 24 12 17 8 11 4 4 1v2l7 1 15 5 8 3 21 6 17 5 32 8 21 4 31 6 16 2 30 3 28 2 28 1 19-1h11l30-2 27-3 11-1 11-2 10-1 31-6 14-3 7-2 6-1 7-3 7-1 5-2 9-3 8-2h7v-2l20-7 9-4 8-3 10-4 10-3 15-7 5-1 1-2 5-1 9-5h4v-2l17-7 6-2 4 3v5l5 2-2 3-8 4-7-1-9 3-10 4-14 7-10 4-13 6-16 6-25 9-38 13-16 4-5 2-30 7-12 2-2 1-62 9-22 2-29 1h-46l-28-2-26-2-16-3-8-1-25-4-25-6-6-1-26-7-9-2-9-3-3-2-13-3v-2l-6-1-14-5-13-6-15-6-5-3-16-6-26-13-15-8-12-6-8-5-12-6-14-6-7-2-9-7-6-2-13-12h3 4z" fill="#CBDAF7"/>
<path transform="translate(1068,790)" d="m0 0h33l22 3 13 4 7 6 2 8v10l-1 14-5 23-8 24-10 21-14 21-9 11-10 9-6 3-5-2-1-1v-7l12-31 10-30 5-23v-17l-6-7-10-4-6-1h-39l-27 2-14 2h-13l-3-3 1-6 14-10 17-8 20-6 14-3z" fill="#C9D9F7"/>
<path transform="translate(937,556)" d="m0 0h18l8 2 1 2v160l-2 7-7 1h-20l-4-1-1-2-1-163 3-5z" fill="#CCDBF8"/>
<path transform="translate(376,579)" d="m0 0h18l9 3 7 8 3 6 2 12v110h-1l-1-82-4 5-2 4-2 10-4 9-7 2-2-2-5-1-5 1-4-2-2 1-5-2v2l-13 2-5-1-6-11-3-8-2-5v-5h-2v89h-1v-130l8-5 11-5z" fill="#035AB6"/>
<path transform="translate(322,838)" d="m0 0 4 1 10 7 9 2 9 5 5 2 15 8 9 5 19 10 11 6 7 3 15 7 13 5 13 6 25 10 11 4v2l8 1 6 2 10 3 3 1 26 7 11 3 14 3 24 5 19 3 11 2 21 2 26 2 15 1h53l25-1 25-3 56-8 7-2 20-4 21-5 8-3 12-3 41-14 21-8 8-3 12-5 9-4 12-5 5-3 8-3 11-5 8-1 4 1 5-3 2 1-8 6-11 7-12 4h-6v2l-15 6-8 4-16 7-9 3h-3v2l-20 6-10 4-22 7-7 3-9 2-17 5-26 6-11 2-16 4-21 3-6 1-36 4-26 1h-55l-40-2-3-1-30-3-7-2-16-2-14-3-25-5-17-5-23-6-16-5-8-3-48-19-28-13-18-8-8-4-10-4-10-6-7-3-4-3-6-2-11-8-14-11-9-7z" fill="#8BAFE7"/>
<path transform="translate(482,579)" d="m0 0h21l9 3 6 5 4 8 2 8v48h-1l-1-26-3 5-7 28-2 2h-10l-8-1v-2h-13l-3 3-6 2-5 1-5-1-2-13h-2l-2-5-4 1-1 81h-1v-132l9-6 13-5z" fill="#045AB6"/>
<path transform="translate(310,819)" d="m0 0 8 1 18 8 15 9 9 5 19 10 7 4 7 3 9 4 17 7 11 6 7 3 10 4 9 4 11 4 10 4 18 6 17 5 44 11 19 3 11 2 36 6 19 2 21 1 23 2h74l34-3 16-1 33-5 20-3 21-4 17-4 40-11 36-12 29-10 20-8 17-8 17-6 7 1 1 1 1-2 2 2v7l-1 3-6 1-2-3-1-5-4-1-17 7-4 1v2l-8 3-7 4-4 1-12 5-8 4-19 6-5 3-11 4-17 6-5 1v2l-15 3-9 3-5 2-11 2-7 3-8 1-9 3-13 2-24 5-10 1-13 2-19 2-18 2-32 2h-11l-20 1-28-1-35-3-22-2-35-6-16-3-24-5-16-5-12-3-23-6-9-3-8-2v-2l-6-1-16-5v-2l-8-1-9-4-15-7-30-15v-2l-6-1-12-7-6-2v-2l-5-2-15-8-13-8-10-5-8-5-14-4-2 4-9-4-1-2 5 1z" fill="#E5F0FD"/>
<path transform="translate(387,552)" d="m0 0h25l12 4 9 6 3 3v2h2l4 6 5-2 18-10 16-6 14-3h26l13 4 11 8 7 9 2 4 2 12v14l-4-1-2-10-3-2v-2l-4-2-13-8-5-6-5-2-1-2-16-4h-9l-16 3-19 8-12 7-7 2-6 2-6-1-5-5-1-3-4-2-4-4-10-5-11-3-10 1-16 4-11 4-14 6-6 1-20 7-5 4-3-1-2-9v-21l3-2h22l4 4 1 2v9l28-14 17-5z" fill="#F2F5FC"/>
<path transform="translate(746,561)" d="m0 0h1l-1 161-2 4-2 1-21-1-4-2-2-8v-5l-25 13-20 7h-8l-2 1h-23l-12-4-10-6-5-5-6-10-3-10-1-9v-100h1l1 92 2 18 2-4-1-1v-6l5-3v8l1 6 6 2 9 6 4 5 9 4 3 2 6 3 5 1h15l16-3 12-4 6-4h3v-2l4-3 11-1 2 1 9-5 4-3h3l3 7 2 1 2-130z" fill="#9EBEEE"/>
<path transform="translate(1068,790)" d="m0 0h33l22 3 13 4 7 6v28h-2l-1-2-1-11-1-3h-4l-2 3-7-1-1 5h-5l-4-5-7-5-12-6-15-3h-18l-21 2-18 4-12 4-5 1v2l-6 3-4 6-5 2h-5l-2-2 1-6 14-10 17-8 20-6 14-3z" fill="#F1F5FB"/>
<path transform="translate(336,847)" d="m0 0 9 1 9 5 5 2 15 8 9 5 19 10 11 6 7 3 15 7 13 5 13 6 25 10 11 4v2l8 1 6 2 10 3 3 1 26 7 11 3 14 3 24 5 19 3 11 2 21 2 26 2 15 1h53l25-1 25-3 56-8 7-2 20-4 21-5 8-3 12-3 41-14 21-8 8-3 12-5 9-4 12-5 5-3 8-3 11-5 8-1 4 1 5-3 2 1-8 6-7-1-8 2-26 13-8 3-15 6-11 5-10 4-30 10-8 3-10 3-7 3-18 5-21 5-14 3-19 4-31 5-36 4-30 2h-63l-36-3-28-4-27-4-20-4-18-5-30-8-16-5-9-3-33-13-20-8-12-5-25-12-12-6-9-4-17-9-11-7-20-8z" fill="#A7C5F2"/>
<path transform="translate(635,635)" d="m0 0 2 2 2 5 1 9 3 9 2 5 4 2v8l-1 7 2 5 5 3 11 1h3v-2h2v-2l-4-1-3-3-2-4-4-1-3-7 2-4 8-1h6l5-1-1 3h8v3h3l-1 3-6 3-1 3-2 1 1 2-1 2 14-2 1 1h7l5-5 1-9-2-7 2-4 1-9 4-8 2 1v47l-17 9-16 5-6 1h-15l-9-2-6-4-6-9-1-4z" fill="#0349A1"/>
<path transform="translate(752,1287)" d="m0 0 11 1 4 1h5l2 3 4-1 2-3h6l3-1 5 2h5l4 2 4-2v2l6-1 1 1v5h10v2l176 1v1h-566v-1l207-1 3-2h2l2-4 6 2 4-1 6 2v-2l5-1 2 3 5-4h10l2 3 7-1 3 1 2-4 6-2 2 2 7-1 4 2 6-2v3h5v-2l5-1h9l1 2 4-1z" fill="#043489"/>
<path transform="translate(1074,552)" d="m0 0h13l20 3 12 3 5 4v17l-4-2-1-7-5-2-6-2-21-1h-20l-15 5-11 7-10 9h-2l-2 4-7 10-1 3h-2l-2 6-6 10-2 2h-4v-16l6-14 7-10 9-10 11-8 16-7 14-3z" fill="#F1F5FC"/>
<path transform="translate(1015,905)" d="m0 0 2 1-18 10-25 12-29 12-26 9-13 4-17 5-23 6-39 8-34 5-34 3h-75l-37-3-30-4-1-1-21-3-32-7-31-9-35-12-27-11-24-11 3-1 30 13 21 8 13 5 47 14 25 6 34 6 23 3 31 3h58l36-3h13l6-2 9-1 13-1 7-1 4-1 24-4 1-1 11-1 2 1 9-4h11v-2l12-3 10-1 6-1v-2l7-1 14-4 16-6 13-5 24-10 21-10z" fill="#0358B3"/>
<path transform="translate(309,557)" d="m0 0h22l4 4 1 2v9l5-1-2 3 4-1 1-1 10-2 17-6 14-3h17l9 1 9 5v2l4 2 4 5v2l7 2h9l19-10 24-9h27l11 4 5 3 6 3 4 5 12 12v2h2l2 5v8l-4-1-2-10-3-2v-2l-4-2-13-8-5-6-5-2-1-2-16-4h-9l-16 3-19 8-12 7-7 2-6 2-6-1-5-5-1-3-4-2-4-4-10-5-11-3-10 1-16 4-11 4-14 6-6 1-20 7-5 4-3-1-2-9v-21z" fill="#E5F0FD"/>
<path transform="translate(1142,835)" d="m0 0h1l-1 10-6 23-8 21-10 19-11 16-9 11-10 9-6 3-5-2-1-1v-7h1l1 7h5l-1-5 5-10 5-8h2v-6h2l2-6 4-7h2l-1-3h2l2-5 6-11h2l1-6 4-7 3-4v-14l5-5 2 5 1-1v-5l-2-2 3-2v-3h4v2l4 1z" fill="#A4C3F1"/>
<path transform="translate(841,1289)" d="m0 0h2l2 2 5-1 7 1 9 1 5 1 11-1 4-1h8l6 1 6-1 4 1 2-2 10 1 14-1h12l6-1h10v2l11-1 8-1 20 2 9 1 2 4-10 1-3 2h-177v-3h3l1-3h4v2l5-2z" fill="#032577"/>
<path transform="translate(938,487)" d="m0 0h17l6 3 5 5 2 4v11l-4 7-4 5-10 5h-7l-10-4-7-8-1-3v-11l3-6 4-5z" fill="#C7D8F6"/>
<path transform="translate(570,1289)" d="m0 0 3 1 1 2 4-1h9l4-2 1 4h6l1-3 3 1 1 4h3v-2l5-1 5 1 6-1 1 3 5-3 8 1 4-1 1 3 3 1-2 3h-208v-1h9v-3l12-2 11-1 25-1h37l6-1 5 1 9 1 7-1h7l1 2 7-1z" fill="#032577"/>
<path transform="translate(827,552)" d="m0 0h29l21 4 11 4 3 3v9l-4-2-7-4-21-3h-25l-17 4-9 6-5 5h-2v2l-5 5-5 6-3 5-5 2-1-1v-13l4-8 8-9h2l1-3 12-7 13-4z" fill="#F1F5FB"/>
<path transform="translate(809,597)" d="m0 0h1l1 7 7 9 9 7 16 6 25 10 8 4 11 7 6 5 6 10 1 6v11l-4-2-5-7v-2l-10-3-5-6-6-4-5-4-13-8-13-6-16-9-6-5v-2l-4-1-6-9v-8z" fill="#F4F7FC"/>
<path transform="translate(1030,650)" d="m0 0 4 5 3 17 5 12 8 9 12 6 11 3h25l18-4h7l3 5v9l-1 8-5-1-3-7-1-1h-12l-9 2-15 1-14-2-12-5-8-5-7-5-9-14-1-11v-15z" fill="#ECF1FA"/>
<path transform="translate(376,576)" d="m0 0h15l7 1 9 6 5 6 4 3v114h7l14-5 2-1v2h2l3 6 2 1 1-115h1v132l-1 1-26 1-5-2-2-8v-110l-2-12-5-9-6-5-7-2h-18l-21 6-13 6v-2l17-8 12-4z" fill="#8BAFE7"/>
<path transform="translate(930,559)" d="m0 0h1l1 147 7-1 3-3 9-1 5 5 6 4 1-150h1v160l-2 7-7 1h-20l-4-1-1-2-1-163z" fill="#86ABE5"/>
<path transform="translate(788,611)" d="m0 0 5 1 4 3v2l4 1 13 13 18 11 13 6v2l5 1 8 6 6 8 5 7 1 3v10h-1l-2-12-5-6-12-6-38-15-14-8-7-6-7-11-2-6h3l2-3z" fill="#87ACE5"/>
<path transform="translate(1049,813)" d="m0 0h36l7 2 12 6 3 4v2l4 2 2 10-2 5-3 1-3 9-4 18h-1l1-10 2-9v-17l-6-7-10-4-6-1h-39l-31 2v-4l2-3 14-3z" fill="#8AAEE7"/>
<path transform="translate(1013,687)" d="m0 0 2 1v2h2v2l5 2 4 6 4 2 3 5 10 6 2 2 13 5 11 3 14 1 3 1 5-1h16l5 1 6-2 4 1-20 6-8 1h-31l-18-5-16-9-13-12-8-13 2-1 1 2z" fill="#8AAEE7"/>
<path transform="translate(713,557)" d="m0 0h30l3 2v16l-1 2-1 13-3-1-3-6-2-1-14 1-9 5z" fill="#F8FAFD"/>
<path transform="translate(305,560)" d="m0 0h1l1 149 1 8 3-2 2-6h10l5 1h3v6h6v-66l1-56h1v130l-4 4h-28l-2-4-1-162z" fill="#86ABE5"/>
<path transform="translate(631,679)" d="m0 0 3 1 4 12 4 5v2l4 2 5 2 6 1h15l17-4 19-9 5-1 1 2-6 7-9 6-8 4-12 4-9 2h-12l-8-2-10-5-5-4-5-7-2-6v-8z" fill="#EBF1FB"/>
<path transform="translate(446,918)" d="m0 0 6 1 27 12 21 8 13 5 47 14 25 6 34 6 23 3 31 3 8 1h71l39-3 33-5 9-2h7v2l-20 4-27 4-34 3h-75l-37-3-30-4-1-1-21-3-32-7-31-9-35-12-27-11-24-11z" fill="#0455B0"/>
<path transform="translate(937,556)" d="m0 0h18l8 2v19l-1 7h-5l-2-3-4-2-9 1-4 2-2 6-4 2-1-4v-28z" fill="#F4F7FC"/>
<path transform="translate(603,556)" d="m0 0h27l3 2v15l-1 12-5-1-3-3-2-1h-8l-5 1-1 3-6 2-1-5v-24z" fill="#F3F6FC"/>
<path transform="translate(524,603)" d="m0 0h1l1 103 2 3 14-6h5v3l4 1 2 2 1 13 1-1 1-53 2 3v21l-1 32-5 3-23 1-4-3-1-3z" fill="#8CB0E8"/>
<path transform="translate(1053,801)" d="m0 0h39l9 1 5 3 14 3 17 2 3 3 3 6v12h-2l-1-2-1-11-1-3h-4l-2 3-7-1-1 5h-5l-4-5-7-5-12-6-15-3h-18l-21 2-18 4-12 4-5 1v2l-6 3-4 6-5 2h-5l-2-2 1-6 14-10 10-5 2 1v3l9-1 25-5z" fill="#E5F0FD"/>
<path transform="translate(889,698)" d="m0 0 3 1 2 4 2 2-8 11-11 8-12 5-16 4-7 1h-14l-20-3-16-4 4-1 3 1 11 1h13l20-1 16-6 9-6h3v-2l5-4h3l2-4z" fill="#8BAFE7"/>
<path transform="translate(1130,861)" d="m0 0 2 1-1 6-4 9-1 3h2l1-4 4-1-3 9-9 19-14 21-9 11-8 7-1-2-4-1 4-9 3-5 3-3 6-8 7-10 5-7 7-15 4-9z" fill="#8BAFE7"/>
<path transform="translate(779,697)" d="m0 0 6 1 21 5 7 1 1 1 8 1h25l10-3-1 5-7 6-7 2-11 1-16-1-2-1-10-1-4-2v-2h-14l-4 4h-2l-1-2v-14z" fill="#F2F6FC"/>
<path transform="translate(746,561)" d="m0 0h1l-1 161-2 4-2 1-21-1-4-2-2-8v-5l-2-1 5-2 9-1 5-1 8 3 1 3 4 1v-138z" fill="#83A8E4"/>
<path transform="translate(604,704)" d="m0 0 4 1 1-1 7 1 8 6 11 7 14 6 6 1 1 4h3l2-5 3 1 2 3 6 1-2 2h-8l-2 1h-23l-12-4-10-6-5-5-6-10z" fill="#8BAFE7"/>
<path transform="translate(938,487)" d="m0 0h17l6 3 5 5 1 2v11l-2 4-5-5-1-5-13-1-7 1v2l-7 2-1 6-5 1-1-1v-11l3-6 4-5z" fill="#F4F7FC"/>
<path transform="translate(1035,632)" d="m0 0h1l1 13h2l1 9 3 5 2 8 8 16 9 6 5 5 6 2-1 4h-10l-12-6-7-7-6-12-3-13-1-7v-21z" fill="#044AA2"/>
<path transform="translate(1074,561)" d="m0 0h14l20 3v1h-41l-15 5-11 7-10 9h-2l-2 4-7 10-1 3h-2l-2 6-6 10-2 2h-4v-16l6-14 2-1-1 5 5-1 13-13 9-7 9-5 13-5z" fill="#E1EDFC"/>
<path transform="translate(309,557)" d="m0 0h22l4 4v15l-1 1h-7l-7-2-5 3-4 3-3-1-2-4v-17z" fill="#F8F9FD"/>
<path transform="translate(999,624)" d="m0 0h1l1 36 2 4 1 11h6l2-1 7 11 3 5 5 5 6 7v2h3v2l5 1 5 5 5 3 18 6h42l2 4-5 1-1-1h-19l-3 1-2-1-14-1-17-5-8-4-5-4-7-4-3-5-5-3-3-5-4-2v-2h-2l-1-2-2 6-2-1v-2l-3-1-5-13-3-16z" fill="#A3C2F0"/>
<path transform="translate(586,904)" d="m0 0h19l7 1 3 2 25 1 35 3 7 1h7l8 3v1l-5 1h-22l-34-3-37-5-14-2z" fill="#04368E"/>
<path transform="translate(891,690)" d="m0 0h4l2 8 2-2-1 5-2 3-3-1-2-4-4 2-7 6-1 2-5 3-3 1v2l-11 6-8 4-9 3-20 1h-13l-11-1-10-2v-1l13-1 7-1 18 1 12-1 13-3 14-7 2-2 5-2 6-7 3-6 5-3z" fill="#A6C4F1"/>
<path transform="translate(1049,813)" d="m0 0h36l7 2 12 6 3 4v2l4 2 2 10-2 5-3 1-3 9-4 18h-1l1-10 2-9v-20l-4-11-11-5-8-2h-21l-25 2-5 1 3 4h-4v2l-2 1-15 1v-4l2-3 14-3z" fill="#A0C0EF"/>
<path transform="translate(809,597)" d="m0 0h1l1 7 7 9 3 4h-2v3h2l6 7 14 7v2l5 1 13 5 13 8 9 6v2l4 2 10 9 5 5v5l-4-2-5-7v-2l-10-3-5-6-6-4-5-4-13-8-13-6-16-9-6-5v-2l-4-1-6-9v-8z" fill="#E2EEFC"/>
<path transform="translate(1030,650)" d="m0 0 4 5 3 17 5 12 2 4h-2l-1-2-1 6 5 5 1 3 5 2 8 5 16 4h19l16-3 8 1 4 4 3 1v6l-5-1-3-7-1-1h-12l-9 2-15 1-14-2-12-5-8-5-7-5-9-14-1-11v-15z" fill="#DBE9FA"/>
<path transform="translate(788,611)" d="m0 0 5 1 4 3v2l4 1 13 13 18 11 13 6v2l5 1 8 6 6 8 5 7 1 3v10h-1l-2-12-7-9-11-6-5-5-7-4-16-8-8-5-3-3-8-7-9-6-3 1-2 3-3-1-3-6 1-2h2l2-3z" fill="#A4C2F0"/>
<path transform="translate(141,429)" d="m0 0h1l1 110v67l-1 10h-1l-1-8v-172z" fill="#053F96"/>
<path transform="translate(1088,573)" d="m0 0 10 2h3l2 2v2l20 5v1h-7l-20-4h-18l-15 3-12 6-8 9-2 2v-2h-2l1-6 5-5 11-6h2l1-3 6-3 6-2z" fill="#9FBEEE"/>
<path transform="translate(963,560)" d="m0 0h1v160l-1 5-5 1v-3l1-10h-2l-2-3-12-1h-7v7l-5 2v-16l1 4 7-1 3-3 9-1 5 5 6 4z" fill="#92B5E9"/>
<path transform="translate(487,561)" d="m0 0h27l11 4 5 3 6 3 4 5 12 12v2h2l2 5v8l-4-1-2-10-3-2v-2l-4-2-13-8-5-6-5-2-1-2-16-4h-9l-16 3-10 3 3-3 8-3z" fill="#E5F0FD"/>
<path transform="translate(854,961)" d="m0 0 2 2-5 2-25 4-8 2-27 4-39 3h-71v-1l7-1h43l36-3h13l6-2 9-1 13-1 7-1 4-1 24-4 1-1z" fill="#028BF0"/>
<path transform="translate(833,967)" d="m0 0h7v2l-20 4-27 4-34 3h-75l-5-1 2-2h71l39-3 33-5z" fill="#0455B0"/>
<path transform="translate(725,570)" d="m0 0h7l3 1 5 5 4 1v13l-3-1-3-6-2-1-14 1-9 5v-15l9-1z" fill="#E5F0FD"/>
<path transform="translate(601,568)" d="m0 0h1v5l7-1 5-4h9v2l3 1 2 4 4 1v9l-5-1-3-3-2-1h-8l-5 1-1 3-6 2-1-5z" fill="#E5F0FD"/>
<path transform="translate(524,603)" d="m0 0h1l1 103 2 3 14-6h5v3l4 1 2 2v13l-3-4 1-8h-18l-3 2-1 7 1 5 3 1v3l-6-1-3-5z" fill="#89ADE6"/>
<path transform="translate(609,712)" d="m0 0 10 3 7 1 3 3v2l4-1 5 3 4 4 5 1 1 2 12 1v1h-23l-12-4-10-6-5-5-2-4z" fill="#6B96DA"/>
<path transform="translate(376,576)" d="m0 0h15l7 1 9 6 5 6 4 3v110h-1l-1-94-2-12-5-9-6-5-7-2h-18l-21 6-13 6v-2l17-8 12-4z" fill="#91B4E9"/>
<path transform="translate(945,511)" d="m0 0 10 3 3 2v4l3 1-8 5-3 1h-7l-10-4-1-2 4 1-1-2v-6z" fill="#A0BFEF"/>
<path transform="translate(447,594)" d="m0 0h1v98l-1 20h-3l-4-3h-10l-10 1v7l-2 3h-2v-14h7l14-5 2-1v2h2l3 6 2 1z" fill="#99BAEC"/>
<path transform="translate(947,567)" d="m0 0 5 2 4 6 6 2v7h-5l-2-3-4-2-9 1-4 2-2 6-4 2-1-9 6-4 4-8z" fill="#E5F0FD"/>
<path transform="translate(335,563)" d="m0 0h1v9l5-1-2 3 4-1 1-1h7l-1 3-8 3-6 1-20 7-5 4-3-1-2-9 1-4 2 4 5-2 3-3 4-1 6 2h7z" fill="#E1EDFC"/>
<path transform="translate(715,711)" d="m0 0 1 2 5-2 7 4 8 1 1 5v4l6-1 2-2-1 4-2 1-21-1-4-2-2-8z" fill="#6B96DA"/>
<path transform="translate(844,560)" d="m0 0 14 1v1l-24 1-17 4-9 6-5 5h-2v2l-5 5-5 6-3 5-5 2-1-1v-13l2-3v7h3l13-14 9-6 9-4 12-3z" fill="#E1EDFC"/>
<path transform="translate(322,701)" d="m0 0h9l1 5h2v3l4-1-1 8-3 1-3-1v-6l-7 1-1-1h-10l-2 6-4 2-1-13 1 3 9-4z" fill="#A7C5F2"/>
<path transform="translate(886,712)" d="m0 0h4l-2 4-11 8-12 5-16 4-7 1h-14l-8-1v-1l26-1 11-3 7-2 1-2h2v-2l5-3 4-2h3l1-3z" fill="#6B96DA"/>
<path transform="translate(631,679)" d="m0 0 3 1 4 12 4 6h-2l-1 5 3 1 4 4 6 4-2 1-10-5-5-4-5-7-2-6v-8z" fill="#DDEAFB"/>
<path transform="translate(522,888)" d="m0 0 8 1 6 3 8 1 2 2 9 1 7 2 2 3h-9l-13-2-25-6 1-4z" fill="#13459A"/>
<path transform="translate(1015,905)" d="m0 0 2 1-18 10-25 12-29 12-26 9-9 3-4-1 9-4 11-3 16-6 13-5 24-10 21-10z" fill="#0454AF"/>
<path transform="translate(1049,813)" d="m0 0h31v1l-46 3-5 1 3 4h-4v2l-2 1-15 1v-4l2-3 14-3z" fill="#A3C2F0"/>
<path transform="translate(966,497)" d="m0 0h1v11l-2 4-5-5-1-5-13-1-7 1v2l-7 2-1 6-5 1-1-1v-11l2-3v7l4 1 2-4 4-2h3v-2h17l8 5z" fill="#DEEBFB"/>
<path transform="translate(1026,713)" d="m0 0 6 2 9 4 5 4 15 5 14-2 11 3h16v1l-8 1h-31l-18-5-16-9z" fill="#6B96DA"/>
<path transform="translate(1035,793)" d="m0 0h6l-4 3-20 6-17 8-7 5-3-1 5-6 7-2 2-4 4-3 11-3 7-2z" fill="#04368F"/>
<path transform="translate(712,690)" d="m0 0 2 2-6 7-9 6-8 4-12 4-3-1 6-4h4l2-4h5l2-3-4-2 17-8z" fill="#DDEAFA"/>
<path transform="translate(319,717)" d="m0 0 6 1 9 2 1 2-7 2v3l3 1h-24v-1h5l-2-3v-4l8-1z" fill="#6B96DA"/>
<path transform="translate(943,716)" d="m0 0h4l1 2 9 3 1 4h4v2l-7 1h-20l-4-1v-2h6l1 1 3-6z" fill="#6C97DB"/>
<path transform="translate(447,692)" d="m0 0h1v34l-1 1-26 1 3-2-1-7 2-2 4 1 2 1 1-3 3 1 2 7 3 1h7z" fill="#6B96DA"/>
<path transform="translate(1110,692)" d="m0 0 8 1 4 2v2l-15 4-5 1h-7l-1-5 1-2z" fill="#034AA3"/>
<path transform="translate(446,918)" d="m0 0 6 1 27 12 21 8 13 5 19 6 2 3-11-3-34-12-30-13-13-6z" fill="#0454AF"/>
<path transform="translate(1125,158)" d="m0 0 7 1 12 3 12 5 15 8 2 4-7-2-16-8-17-7-8-3z" fill="#097CDD"/>
<path transform="translate(610,969)" d="m0 0 32 4 31 3 7 1-1 2-32-2-30-4-7-2z" fill="#035AB6"/>
<path transform="translate(1e3 808)" d="m0 0h6l-2 4h-4l-1 4-11 9h-5l1-6 14-10z" fill="#EDF2FB"/>
<path transform="translate(540,717)" d="m0 0 4 1 6 3-2 5 4 1h-19l-2-3 1-4h7z" fill="#6B96DA"/>
<path transform="translate(1010,804)" d="m0 0 2 1v3l5 1v2l-6 3h-4v2l-6 3-4 6-5 2h-5l-1-2 7-3 6-6h2l1-4 5-2 1-2-4-1z" fill="#DFEBFB"/>
<path transform="translate(142,539)" d="m0 0h1v67l-1 10h-1l-1-8v-29l1-1z" fill="#0453AD"/>
<path transform="translate(1060,708)" d="m0 0 13 2 2 1h19l16-3 8 1 4 4 3 1v6l-5-1-3-7-1-1h-12l-9 2-15 1-14-2-6-2z" fill="#E5F0FD"/>
<path transform="translate(483,576)" d="m0 0h19l6 2 4 2v2l-9-2h-21l-15 5-6 3-2-1 14-7z" fill="#7FA6E2"/>
<path transform="translate(868,693)" d="m0 0h2l-2 6-4 7h-2v2l-8 4-2-1 4-4v-3l-7 1 3-2 10-5 3-4z" fill="#D6E5F9"/>
<path transform="translate(783,621)" d="m0 0h2l7 11 9 7 13 7-1 2-7-1-5-3-8-6-6-7-2-7h-2z" fill="#044CA5"/>
<path transform="translate(1059,858)" d="m0 0 7 1 1 1 1-2 2 2v7l-1 3-6 1-2-3-1-5-4-3z" fill="#DCE9FA"/>
<path transform="translate(143,388)" d="m0 0h1l1 13v30l-1 7-2-1-1-8v-12z" fill="#1990ED"/>
<path transform="translate(525,706)" d="m0 0 3 3h3l-2 10 1 5 3 1v3l-6-1-3-5z" fill="#9CBCED"/>
<path transform="translate(1074,561)" d="m0 0h14l20 3v1h-43l1-2z" fill="#E5F0FD"/>
<path transform="translate(140,608)" d="m0 0h1l2 26v25h-1l-1-7h-1z" fill="#3375C6"/>
<path transform="translate(1210,203)" d="m0 0 4 2 10 9 8 8 8 10-3 1-5-6v-2h-2l-4-5-2-1v-2h-2v-2l-4-2-2-4-4-2z" fill="#158CEA"/>
<path transform="translate(839,575)" d="m0 0 20 1 11 3v1h-7l-5-1h-27l-7 1 2-3z" fill="#8AAEE6"/>
<path transform="translate(142,1007)" d="m0 0h1l1 10v13l-1 6h2l-1 17h-1l-2-22v-23z" fill="#1564BC"/>
<path transform="translate(777,699)" d="m0 0h1l1 15 6-5h12l2 2h-12l-1 3h-2l-1 6-6-3-1-3z" fill="#CFE0F8"/>
<path transform="translate(891,564)" d="m0 0h1l1 12-1 7h-3v-3h-2l-1-7-5-5-5-2 4-1 7 4 4 3z" fill="#D2E2F8"/>
<path transform="translate(905,949)" d="m0 0h2l-1 4-17 5-4-1-7 2-4-1h3v-2l12-3 10-1 6-1z" fill="#0363C0"/>
<path transform="translate(310,819)" d="m0 0 8 1 10 5-4 1-10-3-2 4-9-4-1-2 5 1z" fill="#DFECFB"/>
<path transform="translate(958,488)" d="m0 0h5l6 7 2 6v8l-2 6-3 2 1-7v-11l-3-5v-2l-4-2z" fill="#035EBA"/>
<path transform="translate(1081,577)" d="m0 0 14 1 5 2-4 1h-18l-15 2 2-3 13-2z" fill="#7DA4E1"/>
<path transform="translate(926,515)" d="m0 0 5 5 8 5 11 2-4 2-9-1-7-3-3-3z" fill="#045AB6"/>
<path transform="translate(1296,392)" d="m0 0h1l2 37v7l-2-1-1-5z" fill="#3598EC"/>
<path transform="translate(572,963)" d="m0 0h8l26 5 4 1v2l-15-2-23-5z" fill="#0356B1"/>
<path transform="translate(828,587)" d="m0 0 3 1v3l-6 4-3 3-4-1 1-5 5-4z" fill="#0375D8"/>
<path transform="translate(1086,933)" d="m0 0 1 3-1 3 3 1-1 4-6 3-5-2-1-1v-7h1l1 7h5l-1-5z" fill="#9ABAEC"/>
<path transform="translate(462,874)" d="m0 0h7l3 2 10 2v2h2v2l-10-2-12-4z" fill="#043B94"/>
<path transform="translate(1065,820)" d="m0 0h10l12 3v1l-38-1v-1z" fill="#6B96DA"/>
<path transform="translate(844,560)" d="m0 0 14 1v1l-24 1-17 4-4 1 2-3 15-4z" fill="#E5F0FD"/>
<path transform="translate(1062,874)" d="m0 0 2 1-8 6-7-1-8 1 4-4 8-1 4 1z" fill="#9CBCED"/>
<path transform="translate(752,977)" d="m0 0h14v2l-7 1h-29v-1l20-1z" fill="#0451AB"/>
<path transform="translate(651,975)" d="m0 0h11l15 1 3 2-5 1-24-2z" fill="#0368C7"/>
<path transform="translate(830,678)" d="m0 0 4 1-6 5h-7l-3-1 2-4h8z" fill="#0449A1"/>
<path transform="translate(1032,1293)" d="m0 0h16v2h6v1h-24v-2z" fill="#032577"/>
<path transform="translate(483,576)" d="m0 0h19l6 2 4 2v2l-6-2-2-1-23-1z" fill="#9FBFEF"/>
<path transform="translate(1197,1240)" d="m0 0 5 1 1 3-6 5h-3l-1-4h2l-1-3z" fill="#052A7C"/>
<path transform="translate(885,956)" d="m0 0 3 1-2 2-20 5-4-1 8-3z" fill="#0454AE"/>
<path transform="translate(940,517)" d="m0 0h7l4 2v3l-6 1-6-4z" fill="#8CB0E8"/>
<path transform="translate(217,214)" d="m0 0 3 1-10 9-3 1-2 4-4 5-2-1 7-9 5-5z" fill="#3191E6"/>
<path transform="translate(833,967)" d="m0 0h7v2l-8 2h-10l4-3z" fill="#0457B2"/>
<path transform="translate(1116,709)" d="m0 0 4 2 5 3v6l-5-1-3-7z" fill="#D8E6F9"/>
<path transform="translate(661,724)" d="m0 0 3 1 2 3 6 1-2 2h-13l3-5z" fill="#7FA6E2"/>
<path transform="translate(333,722)" d="m0 0h4v5l-6 1-3-1v-3z" fill="#98B9EC"/>
<path transform="translate(1030,567)" d="m0 0 2 1-17 17v-3l10-11z" fill="#C0D2F2"/>
<path transform="translate(143,388)" d="m0 0h1l1 13-2 14h-1v-16z" fill="#479AE9"/>
<path transform="translate(926,944)" d="m0 0 1 2-11 4-6 2-4-1 9-4z" fill="#0359B5"/>
<path transform="translate(887,953)" d="m0 0 6 1-3 2-12 3-4-1h3v-2z" fill="#028BF0"/>
<path transform="translate(549,568)" d="m0 0 4 2 3 5 1 8h-2l-4-10z" fill="#064FA8"/>
<path transform="translate(958,488)" d="m0 0h5l6 7v4h-2l-3-5v-2l-4-2z" fill="#0452AC"/>
<path transform="translate(472,930)" d="m0 0 7 1 12 5v2l-9-3-10-4z" fill="#0453AD"/>
<path transform="translate(852,629)" d="m0 0h8l4 4 7 3-3 1-15-6z" fill="#044CA5"/>
<path transform="translate(1e3 601)" d="m0 0 1 4-3 12-2-4 2-10z" fill="#044DA7"/>
<path transform="translate(1297,409)" d="m0 0h1l1 27-2-1-1-7z" fill="#5A9CE4"/>
<path transform="translate(373,144)" d="m0 0h18v1l-13 2-10-1v-1z" fill="#0C67C4"/>
<path transform="translate(303,806)" d="m0 0 7 1 7 4-2 1-6-3h-6l-4 3 2-5z" fill="#AEC7EF"/>
<path transform="translate(341,152)" d="m0 0 7 2-2 1v2h-7l-1-3z" fill="#028BF0"/>
<path transform="translate(866,958)" d="m0 0h6l2 2-8 2h-6l3-3z" fill="#028BF0"/>
<path transform="translate(792,726)" d="m0 0 18 2v2l2 1-9-1-11-3z" fill="#7AA2E0"/>
<path transform="translate(575,901)" d="m0 0h5l4 4h-9v-2l-2-1z" fill="#04368E"/>
<path transform="translate(322,838)" d="m0 0 4 1 10 7-4 1-10-8z" fill="#90B3E9"/>
<path transform="translate(691,700)" d="m0 0 4 1-2 4h-5l-1-3z" fill="#FBFCFD"/>
<path transform="translate(142,1036)" d="m0 0h3l-1 17h-1z" fill="#3472C2"/>
<path transform="translate(433,561)" d="m0 0 8 6 1 4-4-2v-2h-2l-3-4z" fill="#074EA6"/>
</svg>
