<?xml version="1.0" standalone="no"?>
<!DOCTYPE svg PUBLIC "-//W3C//DTD SVG 20010904//EN"
 "http://www.w3.org/TR/2001/REC-SVG-20010904/DTD/svg10.dtd">
<svg version="1.0" xmlns="http://www.w3.org/2000/svg"
 width="512.000000pt" height="512.000000pt" viewBox="0 0 512.000000 512.000000"
 preserveAspectRatio="xMidYMid meet">

<g transform="translate(0.000000,512.000000) scale(0.100000,-0.100000)"
 stroke="none">
<path d="M3873 4975 c-12 -8 -112 -156 -222 -329 -160 -251 -201 -322 -201
-349 0 -52 47 -84 97 -66 22 7 58 55 158 212 246 386 285 450 285 474 0 30
-42 73 -72 73 -13 0 -33 -7 -45 -15z"/>
<path d="M2193 4928 c-30 -15 -53 -77 -53 -148 0 -203 155 -663 365 -1081 l45
-88 57 21 c79 29 244 31 323 4 134 -45 247 -138 309 -255 45 -85 61 -150 61
-251 0 -154 -45 -264 -153 -374 l-68 -70 68 -100 c108 -158 279 -383 392 -515
122 -144 229 -244 329 -311 111 -75 180 -78 215 -10 15 29 18 52 14 140 -16
397 -440 1321 -970 2115 -317 475 -631 827 -812 911 -54 26 -87 29 -122 12z"/>
<path d="M1948 4707 c-78 -126 -110 -204 -253 -622 -62 -181 -127 -366 -145
-410 -94 -235 -242 -482 -375 -623 l-77 -82 348 -602 c191 -332 351 -608 355
-614 6 -7 30 -5 79 7 126 32 241 44 425 43 216 -1 326 -15 700 -89 154 -30
330 -65 390 -76 119 -22 395 -38 395 -23 0 5 -28 30 -61 54 -344 251 -927
1081 -1329 1895 -234 472 -386 887 -407 1107 -3 38 -9 70 -12 73 -4 2 -19 -15
-33 -38z"/>
<path d="M4285 4045 c-176 -101 -328 -194 -337 -206 -10 -12 -18 -32 -18 -46
0 -32 42 -73 76 -73 32 0 646 349 682 387 45 49 15 123 -51 123 -24 0 -115
-48 -352 -185z"/>
<path d="M4490 3213 c-265 -12 -308 -16 -330 -32 -33 -24 -39 -78 -11 -112 22
-28 -14 -27 436 -9 339 13 372 17 396 41 27 27 25 80 -4 107 -28 26 -31 26
-487 5z"/>
<path d="M697 2706 c-308 -178 -365 -218 -432 -303 -167 -211 -194 -505 -67
-748 56 -107 183 -231 292 -283 47 -23 114 -48 150 -56 135 -32 327 -13 442
44 24 12 161 90 306 173 190 110 262 156 259 167 -4 14 -636 1114 -661 1151
-10 14 -48 -6 -289 -145z"/>
<path d="M1395 1359 c-121 -71 -250 -140 -288 -155 l-68 -26 7 -36 c16 -90 98
-312 159 -430 83 -161 173 -287 298 -418 126 -132 176 -159 292 -159 66 0 90
5 136 26 117 55 187 151 196 272 9 103 -13 158 -112 282 -112 140 -154 202
-219 327 -59 113 -114 253 -144 368 -11 41 -23 75 -28 76 -5 1 -108 -56 -229
-127z"/>
</g>
</svg>
