<?xml version="1.0" encoding="UTF-8"?>
<svg version="1.1" viewBox="0 0 2048 2048" width="1280" height="1280" xmlns="http://www.w3.org/2000/svg">
<path transform="translate(1667,127)" d="m0 0h14l22 2 23 5 18 6 20 9 14 8 14 10 11 9 13 12 7 8 10 13 12 19 11 23 6 18 5 23 2 22v1110l-2 27-5 32-6 26-8 26-8 21-8 18-9 17-15 24-13 17-9 11-2 3h-2l-2 4-18 18-8 7-16 13-24 16-17 10-29 14-27 10-29 8-26 5-24 3-14 1h-38l-22-2-26-4-26-6-22-7-19-7-26-12-18-10-14-9-14-10-16-13-12-11-17-17-9-11-10-12-16-24-9-16-8-16-9-20-7-20-7-24-6-28-4-28-2-24v-17l2-26 5-30 7-28 9-26 9-21 10-20 12-20 9-13 8-11 13-16 14-15 14-14 11-9 16-13 12-8 19-12 16-9 29-13 36-12 26-6 27-4 30-2h12l31 2 32 5 21 5 6 2-1-299v-103l-2-14-6-15-8-11-8-8-14-8-12-4-6-1h-18l-634 101-18 4-16 8-12 11-8 13-4 10-2 10-1 23v733l-1 61-2 21-4 24-6 25-10 30-10 23-13 25-12 19-13 18-11 13-7 8-12 13-13 12-13 11-16 12-15 10-17 10-19 10-19 8-25 9-27 7-20 4-23 3-14 1h-37l-30-3-26-5-26-7-23-8-27-12-22-12-24-16-13-10-13-11-10-9-19-19-9-11-12-15-11-16-9-15-12-22-10-23-8-22-7-26-5-27-3-26v-48l3-25 4-23 7-26 7-21 9-22 10-19 7-13 11-17 13-18 9-11 10-11 7-8 8-8h2v-2l11-9 10-9 18-13 19-12 16-9 25-12 21-8 22-7 27-6 27-4 10-1h49l27 3 27 5 11 3 1-793 2-19 4-19 6-19 7-17 10-18 10-14 10-13 16-16h2v-2l20-15 21-12 18-8 20-6 25-5 104-18 180-31 244-42 314-54 34-5zm4 65-21 2-42 7-98 17-175 30-157 27-372 64-33 6-17 5-19 9-12 8-13 11-7 7-10 13-8 13-7 16-4 12-3 17-1 11-1 839-4 11-8 9-8 4-10 2-9-1-12-4-22-8-28-7-29-4h-40l-31 4-27 6-25 8-26 11-20 11-15 10-12 9-15 13-18 18-8 10-10 13-13 21-9 17-10 25-7 22-5 22-3 19-2 28v14l2 26 5 30 5 19 7 21 10 23 12 22 11 16 11 14 12 13 14 14 11 9 12 9 14 9 16 9 21 10 22 8 27 7 23 4 26 3h31l25-3 27-6 17-5 25-10 25-13 17-11 11-8 11-9 10-9 3-2v-2h2v-2l4-2v-2h2l7-8 11-13 12-17 11-18 8-16 7-15 10-30 5-22 3-21 1-12 1-807 2-20 5-19 7-16 8-14 10-13 14-14 14-10 10-6 15-6 13-4 41-7 427-68 182-29 11-1h21l15 2 18 5 18 8 14 9 10 8 9 8 11 14 8 12 8 18 5 16 2 11 1 11v457l-3 10-6 9-10 6-6 2h-13l-15-5-24-9-28-7-16-3-24-2h-31l-28 3-24 5-23 7-24 10-20 10-22 14-13 10-21 18v2l-4 2v2l-4 2-7 8-11 13-12 17-11 18-8 16-8 18-9 27-6 26-3 24-1 13v13l3 30 5 28 7 25 8 22 7 16 11 20 12 18 11 14 12 13 14 14 11 9 12 9 17 11 27 14 23 9 24 7 25 5 16 2 14 1h30l23-2 23-4 23-6 23-8 20-9 17-9 11-7 17-12 14-12 13-12v-2l3-1 9-11 5-6v-2h2l14-21 9-16 8-16 9-24 7-24 5-25 3-22 1-16v-1106l-2-18-4-16-6-16-9-16-9-12-12-13-17-13-21-11-18-6-17-3z" fill="#FEFEFE"/>
</svg>
