<?xml version="1.0" encoding="UTF-8"?>
<svg version="1.1" viewBox="0 0 860 899" width="1280" height="1280" xmlns="http://www.w3.org/2000/svg">
<path transform="translate(0)" d="m0 0h860v899h-860z" fill="#60919C"/>
<path transform="translate(0)" d="m0 0h860v899h-860zm412 40-27 2-32 5-30 7-26 8-25 10-24 11-25 14-24 16-19 14-15 13-10 9-21 21-7 8-10 12-10 13-11 16-13 21-12 22-12 27-9 24-10 35-5 26-4 31-1 17v38l3 33 5 29 8 32 11 32 11 25 10 20 13 22 8 12 10 14 11 14 12 14 15 16 9 9 8 7 10 9 16 12 15 11 19 12 16 9 17 9 25 11 22 8 28 8 28 6 29 4 11 1 32 1 28-1 34-4 34-7 27-8 25-9 20-9 24-12 20-12 19-13 17-13 11-9 15-14 4-3v-2h2v-2h2l7-8 7-7 9-11 10-12 13-18 11-17 12-21 13-26 11-28 8-25 7-29 5-30 2-22 1-30-1-28-3-27-5-28-7-28-9-27-10-24-11-23-12-21-16-24-9-12-11-14-13-14-1-2h-2l-2-4-14-14-8-7-10-9-17-13-15-11-21-13-18-10-27-13-26-10-25-8-30-7-33-5-26-2z" fill="#F7F7F7"/>
<path transform="translate(352,314)" d="m0 0h292l-8 16-13 23-13 25-13 23-13 25-13 23-13 25-13 23-13 25-13 23-10 19-2 2h-291l2-6 12-22 52-96 12-22 14-26 12-22 14-26 12-22z" fill="#F7F7F7"/>
</svg>
