<svg width="44" height="60" viewBox="0 0 44 60" fill="none" xmlns="http://www.w3.org/2000/svg"><path d="M30.439 2.778a20.983 20.983 0 01-22.906 34.43A21.007 21.007 0 0014 41.413V48h16v-6.587a20.992 20.992 0 00.439-38.635z" fill="#DADDCA"/><path d="M15 52v3a4 4 0 004 4h6a4 4 0 004-4v-3H15z" fill="#077A3F"/><path d="M30 47H14v8h16v-8z" fill="#FBFBF6"/><path d="M29.284 19.8l-.579-1.4.544-2.12-1.534-1.534-2.115.554-1.4-.579-1.113-1.882h-2.17L19.8 14.716l-1.4.579-2.12-.544-1.534 1.534.544 2.12-.579 1.4-1.882 1.113v2.17l1.887 1.112.579 1.4-.544 2.12 1.534 1.534 2.12-.544c.518.214 1.077 1.08 1.595 1.3V47h4V30c.518-.215 1.077-1.081 1.595-1.3l2.12.544 1.534-1.534-.544-2.12.579-1.4 1.882-1.113v-2.17L29.284 19.8zM22 25a3 3 0 110-5.999A3 3 0 0122 25z" fill="#077A3F"/><path d="M28 47v3H14v2h14v3h2v-8h-2z" fill="#DADDCA"/><path d="M13 10l2-2h-2V6l-2 2H9v2l-2 2h2v2l2-2h2v-2z" fill="#fff"/><path d="M22 0a22 22 0 00-9 42.072V55a1 1 0 001 1h.1a5.009 5.009 0 004.9 4h6a5.01 5.01 0 004.9-4h.1a1 1 0 001-1V42.072A22 22 0 0022 0zm7 54H15v-2h12v-2H15v-2h14v6zm-4 4h-6a3 3 0 01-2.816-2h11.632A3 3 0 0125 58zm4.618-17.511a1 1 0 00-.618.925V46H15v-4.586a1 1 0 00-.618-.925 20 20 0 1115.236 0z" fill="#363731"/></svg>