<?xml version="1.0" standalone="no"?>
<!DOCTYPE svg PUBLIC "-//W3C//DTD SVG 20010904//EN"
 "http://www.w3.org/TR/2001/REC-SVG-20010904/DTD/svg10.dtd">
<svg version="1.0" xmlns="http://www.w3.org/2000/svg"
 width="512.000000pt" height="512.000000pt" viewBox="0 0 512.000000 512.000000"
 preserveAspectRatio="xMidYMid meet">

<g transform="translate(0.000000,512.000000) scale(0.100000,-0.100000)"
fill="#2563eb" stroke="none">
<path d="M78 4939 c-23 -12 -46 -35 -58 -59 -20 -39 -20 -56 -20 -1870 0
-1778 1 -1832 19 -1868 11 -22 35 -46 59 -60 l40 -22 1338 0 1339 0 440 -439
c242 -242 453 -445 468 -450 69 -26 155 5 188 69 18 32 19 64 19 427 l0 393
545 0 c527 0 547 1 585 20 26 13 47 34 60 60 20 39 20 55 20 1870 0 1815 0
1831 -20 1870 -13 26 -34 47 -60 60 -39 20 -53 20 -2482 20 -2413 -1 -2443 -1
-2480 -21z m2719 -660 c37 -14 469 -444 494 -491 23 -45 24 -88 3 -131 -21
-43 -1720 -1744 -1764 -1766 -19 -10 -181 -67 -359 -126 -343 -114 -369 -118
-427 -80 -37 24 -64 75 -64 120 0 24 44 172 111 375 l111 335 867 869 c476
477 880 877 896 887 33 21 89 25 132 8z m1633 -539 c45 -23 80 -80 80 -130 0
-50 -35 -107 -80 -130 -37 -19 -58 -20 -371 -20 -325 0 -332 0 -371 22 -101
57 -102 194 -2 254 39 24 40 24 372 24 314 0 335 -1 372 -20z m0 -600 c45 -23
80 -80 80 -130 0 -50 -35 -107 -80 -130 -38 -19 -58 -20 -521 -20 -480 0 -481
0 -521 22 -101 57 -102 194 -2 254 l39 24 483 0 c464 0 484 -1 522 -20z m0
-600 c45 -23 80 -80 80 -130 0 -50 -35 -107 -80 -130 -38 -20 -57 -20 -821
-20 l-781 0 -40 22 c-45 25 -78 80 -78 128 0 48 35 107 78 129 36 20 60 20
820 21 765 0 784 0 822 -20z m0 -600 c45 -23 80 -80 80 -130 0 -50 -35 -107
-80 -130 -39 -20 -57 -20 -1120 -20 -1063 0 -1081 0 -1120 20 -102 52 -104
196 -4 256 l39 24 1083 0 c1066 0 1083 0 1122 -20z"/>
<path d="M2630 3825 l-105 -105 105 -105 105 -105 105 105 105 105 -105 105
-105 105 -105 -105z"/>
<path d="M1738 2933 l-568 -568 -51 -153 c-28 -84 -49 -155 -47 -157 3 -3 72
18 154 45 l149 50 572 572 573 573 -102 102 c-57 57 -105 103 -108 103 -3 0
-260 -255 -572 -567z"/>
</g>
</svg>
