<?xml version="1.0" encoding="UTF-8"?>
<svg version="1.1" viewBox="0 0 2048 2048" width="1280" height="1280" xmlns="http://www.w3.org/2000/svg">
<path transform="translate(983,640)" d="m0 0h35l34 3 29 5 28 7 32 11 25 11 22 11 20 12 16 11 16 12 13 11 10 9 5 4 28 28 7 8 14 15 11 14 14 19 13 21 12 22 9 19 11 28 9 30 5 23v17l-4 12-7 11-7 7-10 6-12 4h-19l-12-4-10-7-7-7-7-12-4-13-7-26-7-20-8-18-8-16-10-17-12-17-14-17-14-15-25-25-8-7-11-9-15-11-21-13-19-10-19-8-27-9-27-6-23-3-15-1h-25l-23 2-24 4-24 6-20 7-19 8-19 10-19 12-12 9-9 7-14 12-629 629-1 2h-2l-2 4-12 14-18 27-12 22-7 16-7 19-7 24-5 27-2 18v43l3 25 6 29 6 19 8 21 10 21 10 17 11 16 11 14 12 14 33 33 8 7 12 10 18 13 20 12 16 8 18 8 27 9 22 5 16 3 18 2 21 1 23-1 30-4 26-6 27-9 20-9 23-12 18-12 16-12 10-9 8-7 344-344 11-7 10-4 6-1h13l12 3 10 6 10 9 6 10 4 10 1 5v11l-3 13-6 11-11 12-5 6-8 7-334 334-11 9-13 11-17 12-17 11-23 13-27 13-24 9-29 9-32 7-29 5h-83l-3-2-33-6-28-7-30-10-23-10-19-9-21-12-15-10-14-10-13-10-10-9-8-7-10-9-31-31-7-8-12-14-14-18-10-15-11-18-7-12-11-23-10-25-7-21-8-32-6-35-1-2v-83l3-16 6-31 7-26 8-24 9-21 11-23 11-19 14-21 9-12 10-13 2-3h2l2-4 15-16 7-8 7-6 5-6 7-6 5-6 7-6 5-6 7-6 5-6 7-6 5-6 7-6 5-6 7-6 5-6 7-6 5-6 7-6 5-6 7-6 5-6 7-6 5-6 7-6 5-6 7-6 5-6 7-6 5-6 7-6 5-6 7-6 5-6 7-6 5-6 7-6 5-6 7-6 5-6 7-6 5-6 7-6 5-6 7-6 5-6 7-6 5-6 7-6 5-6 7-6 5-6 8-7 19-19 5-6 4-4h2v-2h2v-2h2v-2h2v-2h2v-2h2v-2l7-6 5-6 7-6 5-6 7-6 5-6 7-6 1-2h2v-2h2v-2l8-7 7-7 5-6h2v-2h2v-2l8-7 4-5 8-7 4-5 4-4h2v-2h2v-2l8-7 7-7 5-6h2v-2h2v-2l7-6 5-6 7-6 5-6 7-6 5-6 7-6 1-2h2v-2h2v-2l7-6 5-6 4-4h2v-2h2v-2h2v-2h2v-2h2v-2h2v-2l7-6 1-2h2v-2h2v-2l7-6 5-6h2v-2h2v-2l4-4h2v-2h2v-2h2v-2h2v-2h2v-2h2v-2h2v-2h2v-2h2v-2h2v-2l4-4h2v-2h2v-2l8-7 14-13 14-11 19-14 19-12 22-12 23-11 26-10 19-6 24-6 26-5 25-3z" fill="#FEFEFE"/>
<path transform="translate(1601)" d="m0 0h86v1l43 8 26 7 31 11 26 12 19 10 21 13 20 14 17 14 11 10 8 7 39 39 7 8 13 16 13 18 10 15 12 21 12 24 13 33 8 27 7 31 3 18 2 1v95l-2 2-5 29-7 30-11 33-10 23-8 16-9 17-10 16-9 13-10 13-8 10-12 14-13 13-5 6-8 7-613 613-8 7-11 9-16 12-18 12-15 9-20 11-27 12-22 8-28 8-29 6-28 4-32 2h-13l-34-2-33-5-25-6-24-7-27-10-26-12-22-12-27-18-13-10-16-13-15-14-36-36-7-8-12-14-12-16-16-24-13-23-12-25-10-26-9-30-5-22-1-10 2-12 5-12 7-9 9-8 10-5 7-2h20l10 3 11 7 9 9 8 16 8 31 7 21 10 23 12 22 8 12 10 14 11 13 7 8 7 7 6 7 6 5 6 7 8 7 7 7 11 9 13 10 17 11 16 9 23 11 25 9 23 6 29 5 30 2 27-1 24-3 24-5 26-8 22-9 16-8 18-10 16-11 13-10 12-11 8-7 623-623 7-8 10-12 14-20 14-25 8-17 8-21 8-30 4-21 2-22v-37l-3-27-5-25-7-24-10-25-8-17-13-22-10-14-11-14-12-13-37-37-11-9-19-14-18-11-23-12-25-10-19-6-27-6-24-3-30-1-31 2-29 5-25 7-21 8-18 8-18 10-21 14-14 11-14 12-346 346-10 7-8 4-14 3h-8l-13-3-11-6-11-11-6-11-3-8-1-7v-8l3-13 6-11 9-11 8-7 4-5h2v-2h2v-2l4-4h2v-2h2v-2h2v-2h2v-2l7-6 5-6h2v-2h2v-2l7-6 1-2h2v-2h2v-2h2v-2h2v-2l7-6 5-6 7-6 1-2h2v-2h2v-2l7-6 5-6 7-6 5-6h2v-2h2v-2h2v-2h2v-2l7-6 5-6 4-4h2v-2h2v-2h2v-2h2v-2l7-6 5-6 7-6 5-6 7-6 1-2h2v-2h2v-2l7-6 5-6 7-6 5-6 7-6 5-6 7-6 5-6 7-6 5-6h2v-2h2v-2l7-6 5-6 7-6 5-6 4-4h2v-2h2v-2h2v-2h2v-2l7-6 5-6 7-6 1-2h2v-2h2v-2h2v-2h2v-2l4-4h2v-2h2v-2h2v-2h2v-2h2v-2h2v-2h2v-2h2v-2l4-4h2v-2h2v-2h2v-2h2v-2l8-7 14-13 14-11 13-10 15-10 18-11 27-14 23-10 36-12 34-8z" fill="#FEFEFE"/>
</svg>
