<svg width="37" height="44" viewBox="0 0 37 44" fill="none" xmlns="http://www.w3.org/2000/svg"><path d="M19.808 38.144a.84.84 0 10.001 1.68.84.84 0 000-1.68z" fill="#3C3B3A"/><mask id="a" fill="#fff"><path d="M33.703 4.047h-2.52V2.703c0-1.39-1.13-2.52-2.519-2.52H8.508c-1.39 0-2.52 1.13-2.52 2.52v1.344h-2.52A2.522 2.522 0 00.95 6.567c0 5.463 2.557 9.478 6.704 10.596a18.514 18.514 0 006.524 7.713c.657.443 1.05 1.2 1.05 2.028v4.627a3.339 3.339 0 00-1.536.879 3.338 3.338 0 00-.984 2.375h-.84c-1.39 0-2.52 1.13-2.52 2.52v5.038c0 .464.377.84.84.84h16.797a.84.84 0 00.84-.84v-5.039c0-1.389-1.13-2.52-2.52-2.52h-.84a3.365 3.365 0 00-2.519-3.252v-4.624c0-.83.393-1.59 1.05-2.032a18.513 18.513 0 006.524-7.713c4.147-1.119 6.703-5.134 6.703-10.597 0-1.39-1.13-2.52-2.519-2.52zM2.629 6.567a.84.84 0 01.84-.84h2.52V9.48c0 1.915.29 3.79.862 5.595-2.673-1.324-4.222-4.381-4.222-8.509zm22.676 29.898a.84.84 0 01.84.84v4.199H11.026v-4.2a.84.84 0 01.84-.84h13.438zM29.504 9.48c0 2.294-.457 4.527-1.358 6.635a16.843 16.843 0 01-6.089 7.368c-1.122.755-1.791 2.035-1.791 3.425v5.357c0 .464.376.84.84.84.925 0 1.679.754 1.679 1.68h-8.398c0-.448.175-.87.492-1.188a1.668 1.668 0 011.121-.49.841.841 0 00.906-.842v-5.361c0-1.387-.67-2.666-1.79-3.421a16.843 16.843 0 01-6.09-7.368A16.78 16.78 0 017.668 9.48V2.703a.84.84 0 01.84-.84h20.156a.84.84 0 01.84.84V9.48zm.817 5.595c.573-1.806.862-3.68.862-5.595V5.726h2.52a.84.84 0 01.84.84c0 4.127-1.55 7.185-4.222 8.509z"/></mask><path d="M33.703 4.047h-2.52V2.703c0-1.39-1.13-2.52-2.519-2.52H8.508c-1.39 0-2.52 1.13-2.52 2.52v1.344h-2.52A2.522 2.522 0 00.95 6.567c0 5.463 2.557 9.478 6.704 10.596a18.514 18.514 0 006.524 7.713c.657.443 1.05 1.2 1.05 2.028v4.627a3.339 3.339 0 00-1.536.879 3.338 3.338 0 00-.984 2.375h-.84c-1.39 0-2.52 1.13-2.52 2.52v5.038c0 .464.377.84.84.84h16.797a.84.84 0 00.84-.84v-5.039c0-1.389-1.13-2.52-2.52-2.52h-.84a3.365 3.365 0 00-2.519-3.252v-4.624c0-.83.393-1.59 1.05-2.032a18.513 18.513 0 006.524-7.713c4.147-1.119 6.703-5.134 6.703-10.597 0-1.39-1.13-2.52-2.519-2.52zM2.629 6.567a.84.84 0 01.84-.84h2.52V9.48c0 1.915.29 3.79.862 5.595-2.673-1.324-4.222-4.381-4.222-8.509zm22.676 29.898a.84.84 0 01.84.84v4.199H11.026v-4.2a.84.84 0 01.84-.84h13.438zM29.504 9.48c0 2.294-.457 4.527-1.358 6.635a16.843 16.843 0 01-6.089 7.368c-1.122.755-1.791 2.035-1.791 3.425v5.357c0 .464.376.84.84.84.925 0 1.679.754 1.679 1.68h-8.398c0-.448.175-.87.492-1.188a1.668 1.668 0 011.121-.49.841.841 0 00.906-.842v-5.361c0-1.387-.67-2.666-1.79-3.421a16.843 16.843 0 01-6.09-7.368A16.78 16.78 0 017.668 9.48V2.703a.84.84 0 01.84-.84h20.156a.84.84 0 01.84.84V9.48zm.817 5.595c.573-1.806.862-3.68.862-5.595V5.726h2.52a.84.84 0 01.84.84c0 4.127-1.55 7.185-4.222 8.509z" fill="#3C3B3A"/><path d="M31.183 4.047h-4v4h4v-4zm-25.195 0v4h4v-4h-4zm1.665 13.116l3.642-1.655-.78-1.716-1.82-.491-1.042 3.862zm6.524 7.713l2.235-3.318-2.235 3.318zm1.05 6.655l.993 3.875 3.007-.771V31.53h-4zm-1.536.879l2.829 2.828-2.829-2.828zm-.984 2.375v4h4v-4h-4zm11.758 0h-4v4h4v-4zm-2.52-3.253h-4v3.098l3 .775 1-3.873zm1.05-6.656l2.234 3.318h.002l-2.235-3.318zm6.524-7.713L28.478 13.3l-1.82.49-.78 1.717 3.641 1.655zM5.99 5.726h4v-4h-4v4zm.862 9.349l-1.776 3.584 8.433 4.177-2.844-8.97-3.813 1.209zm19.293 26.429v4h4v-4h-4zm-15.117 0h-4v4h4v-4zm17.12-25.389l-3.68-1.572 3.68 1.572zm-6.09 7.368l2.234 3.318.001-.001-2.235-3.317zm.728 11.302v4h4v-4h-4zm-8.398 0h-4v4h4v-4zm.492-1.188l-2.83-2.827 2.829 2.828zm1.121-.49l.308-3.989-.23-.018-.231.01.153 3.996zm-.885-9.624l2.236-3.317-2.236 3.317zm-6.089-7.368l3.678-1.572-3.678 1.572zm21.295-1.04l-3.813-1.209-2.842 8.97 8.431-4.177-1.776-3.584zm.862-9.349v-4h-4v4h4zm2.52-5.68h-2.52v8h2.52v-8zm1.48 4V2.704h-8v1.344h8zm0-1.343a6.522 6.522 0 00-6.519-6.52v8c-.82 0-1.48-.66-1.48-1.48h8zm-6.519-6.52H8.508v8h20.156v-8zm-20.156 0a6.522 6.522 0 00-6.52 6.52h8c0 .82-.66 1.48-1.48 1.48v-8zm-6.52 6.52v1.344h8V2.703h-8zm4-2.656h-2.52v8h2.52v-8zm-2.52 0a6.522 6.522 0 00-6.519 6.52h8c0 .819-.66 1.48-1.48 1.48v-8zm-6.519 6.52c0 6.64 3.227 12.724 9.663 14.458l2.082-7.724C6.835 12.8 4.95 10.852 4.95 6.566h-8zm7.063 12.25a22.515 22.515 0 007.93 9.376l4.47-6.635a14.514 14.514 0 01-5.117-6.05l-7.283 3.31zm7.93 9.376a1.574 1.574 0 01-.716-1.29h8c0-2.087-.997-4.12-2.814-5.345l-4.47 6.635zm-.716-1.29v4.628h8v-4.627h-8zm3.007.754a7.338 7.338 0 00-3.37 1.924l5.657 5.657a.662.662 0 01-.3.168l-1.987-7.75zm-3.37 1.924a7.337 7.337 0 00-2.156 5.204h8a.648.648 0 01-.187.453l-5.657-5.657zm1.844 1.204h-.84v8h.84v-8zm-.84 0a6.522 6.522 0 00-6.52 6.52h8c0 .82-.66 1.48-1.48 1.48v-8zm-6.52 6.52v5.038h8v-5.039h-8zm0 5.038a4.84 4.84 0 004.84 4.84v-8a3.16 3.16 0 013.16 3.16h-8zm4.84 4.84h16.797v-8H10.187v8zm16.797 0a4.84 4.84 0 004.84-4.84h-8a3.16 3.16 0 013.16-3.16v8zm4.84-4.84v-5.039h-8v5.04h8zm0-5.039a6.522 6.522 0 00-6.52-6.52v8c-.82 0-1.48-.66-1.48-1.48h8zm-6.52-6.52h-.84v8h.84v-8zm3.16 4c0-3.433-2.352-6.307-5.518-7.125l-2.001 7.746a.635.635 0 01-.48-.62h8zm-2.519-3.252v-4.624h-8v4.624h8zm0-4.624c0 .428-.21.945-.716 1.286l-4.467-6.636c-1.822 1.226-2.817 3.263-2.817 5.35h8zm-.714 1.285a22.514 22.514 0 007.93-9.376l-7.284-3.309a14.514 14.514 0 01-5.116 6.05l4.47 6.635zm5.33-7.168c6.435-1.735 9.661-7.818 9.661-14.459h-8c0 4.286-1.885 6.233-3.744 6.735l2.083 7.724zm9.661-14.459a6.522 6.522 0 00-6.519-6.52v8c-.82 0-1.48-.66-1.48-1.48h8zm-33.593 0a3.16 3.16 0 01-3.16 3.16v-8a4.84 4.84 0 00-4.84 4.84h8zm-3.16 3.16h2.52v-8H3.47v8zm-1.48-4V9.48h8V5.726h-8zm0 3.754c0 2.323.352 4.605 1.049 6.804l7.626-2.418a14.446 14.446 0 01-.676-4.386h-8zm6.637 2.01c-.829-.41-1.997-1.693-1.997-4.924h-8c0 5.024 1.93 9.856 6.446 12.093l3.551-7.168zm16.679 28.974a3.16 3.16 0 01-3.16-3.16h8a4.84 4.84 0 00-4.84-4.84v8zm-3.16-3.16v4.2h8v-4.2h-8zm4 .2h-15.12v8h15.117v-8zm-11.118 4v-4.2h-8v4.2h8zm0-4.2a3.16 3.16 0 01-3.16 3.16v-8a4.84 4.84 0 00-4.84 4.84h8zm-3.16 3.16h13.438v-8H11.867v8zM25.504 9.48a12.79 12.79 0 01-1.036 5.063l7.356 3.144a20.79 20.79 0 001.68-8.207h-8zm-1.036 5.063a12.843 12.843 0 01-4.646 5.622l4.47 6.635a20.841 20.841 0 007.532-9.113l-7.356-3.144zm-4.644 5.621c-2.262 1.523-3.559 4.067-3.559 6.744h8a.2.2 0 01.02-.096c.007-.015.011-.015.006-.011l-4.467-6.637zm-3.559 6.744v5.357h8v-5.357h-8zm0 5.357a4.84 4.84 0 004.84 4.84v-8a3.16 3.16 0 013.16 3.16h-8zm4.84 4.84a2.318 2.318 0 01-2.32-2.32h8a5.682 5.682 0 00-5.68-5.68v8zm1.68-6.32h-8.398v8h8.398v-8zm-4.398 4c0 .614-.248 1.21-.68 1.64L12.05 30.77a5.669 5.669 0 00-1.663 4.016h8zm-.68 1.64c-.409.41-.967.656-1.553.678l-.307-7.994a5.668 5.668 0 00-3.797 1.66l5.657 5.657zm-2.014.67c.125.01.25.014.373.014v-8c.08 0 .16.003.242.01l-.615 7.975zm.373.014c2.696 0 4.84-2.194 4.84-4.844h-8a3.157 3.157 0 013.16-3.156v8zm4.84-4.844v-5.361h-8v5.361h8zm0-5.361c0-2.677-1.298-5.217-3.555-6.738L12.88 26.8c-.005-.003 0-.002.006.012a.198.198 0 01.02.092h8zm-3.556-6.739a12.844 12.844 0 01-4.646-5.622l-7.356 3.143A20.843 20.843 0 0012.88 26.8l4.47-6.635zm-4.646-5.623a12.78 12.78 0 01-1.036-5.062h-8c0 2.835.566 5.602 1.68 8.208l7.356-3.146zM11.668 9.48V2.703h-8V9.48h8zm0-6.777a3.16 3.16 0 01-3.16 3.16v-8a4.84 4.84 0 00-4.84 4.84h8zm-3.16 3.16h20.156v-8H8.508v8zm20.156 0a3.16 3.16 0 01-3.16-3.16h8a4.84 4.84 0 00-4.84-4.84v8zm-3.16-3.16V9.48h8V2.703h-8zm8.63 13.58a22.458 22.458 0 001.05-6.803h-8c0 1.506-.228 2.973-.676 4.386l7.626 2.417zm1.05-6.803V5.726h-8V9.48h8zm-4 .246h2.519v-8h-2.52v8zm2.519 0a3.16 3.16 0 01-3.16-3.16h8a4.84 4.84 0 00-4.84-4.84v8zm-3.16-3.16c0 3.23-1.169 4.514-1.997 4.924l3.551 7.169c4.516-2.237 6.446-7.07 6.446-12.093h-8z" fill="#3C3B3A" mask="url(#a)"/><path d="M23.096 10.107a.84.84 0 00-.678-.572l-3.625-.526-1.621-3.285a.84.84 0 00-1.506 0L14.044 9.01l-3.624.526a.84.84 0 00-.465 1.433l2.623 2.556-.62 3.61a.84.84 0 001.22.886l3.24-1.704 3.243 1.704a.84.84 0 001.219-.886l-.62-3.61 2.623-2.556a.84.84 0 00.213-.861zM18.77 12.63a.84.84 0 00-.241.743l.406 2.368-2.126-1.118a.84.84 0 00-.782 0l-2.126 1.118.406-2.368a.84.84 0 00-.242-.743l-1.72-1.677 2.377-.345a.84.84 0 00.632-.46l1.064-2.155 1.063 2.155a.84.84 0 00.633.46l2.377.345-1.72 1.677z" fill="#077A3F"/><path d="M16.45 38.144h-3.36a.84.84 0 000 1.68h3.36a.84.84 0 000-1.68z" fill="#3C3B3A"/></svg>