<?xml version="1.0" encoding="UTF-8"?>
<svg version="1.1" viewBox="0 0 2048 2048" width="1280" height="1280" xmlns="http://www.w3.org/2000/svg">
<path transform="translate(128)" d="m0 0h1032l52 5 56 8 33 7 42 10 55 18 20 7 53 23 17 8 46 25 21 13 45 30 13 10 16 13 13 10 17 14 16 15 9 9 8 7 27 27 9 11 11 12 7 8 14 17 13 18 14 19 14 20 17 29 13 22 12 23 16 34 10 24 17 48 7 24 13 53 7 46 4 32 2 24 1 31v28l-1 32-3 36-5 39-8 43-8 33-10 35-12 35-15 37-9 20-13 27-12 22-11 19-15 24-8 12-16 23-10 13-13 17-24 28-9 10-16 17-21 21h-2l-1 3-8 7-13 12-11 9-13 11-12 9-13 10-17 12-27 18-28 17-24 13-25 13-33 15-27 11-34 12-29 9-31 8-36 8-43 7-37 4-29 2-33 1h-387v375l-1 21-3 19-6 18-8 16-8 12-12 14-9 8-13 9-17 9-24 8-17 3h-522z" fill="#2298F9"/>
</svg>
