<svg width="38" height="50" viewBox="0 0 38 50" fill="none" xmlns="http://www.w3.org/2000/svg"><mask id="a" maskUnits="userSpaceOnUse" x="-.327" y="-.5" width="39" height="51" fill="#000"><path fill="#fff" d="M-.327-.5h39v51h-39z"/><path d="M30.984 27.133a24.16 24.16 0 01-5.524-2.163l-1.046-.565a.64.64 0 01-.34-.548v-.788c1.8-1.41 3-3.59 3-6.033v-.222a1.958 1.958 0 001.663-1.915 1.936 1.936 0 00-.816-1.565 12.821 12.821 0 00-.22-8.95l-.31-.816a3.552 3.552 0 00.382-1.574v-.895a.624.624 0 00-.851-.556c-1.859.756-7 .464-10.834-.015a2.27 2.27 0 00-.802.033 2.345 2.345 0 00-1.817 2.292 1.156 1.156 0 01-1.155 1.154 2.046 2.046 0 00-1.91 1.295l-.069.17a9.9 9.9 0 000 7.351l.255.64a1.94 1.94 0 001.083 3.351v.221a7.714 7.714 0 002.6 5.806v1.212a.615.615 0 01-.338.558l-1.465.738a22.174 22.174 0 01-4.882 1.73 8.967 8.967 0 00-6.915 8.708V48.9a.622.622 0 00.625.6h35.75a.622.622 0 00.625-.6V35.787a8.955 8.955 0 00-6.689-8.654zM11.45 5.915l.068-.17a.851.851 0 01.795-.538 2.357 2.357 0 002.355-2.354 1.148 1.148 0 01.89-1.123c.124-.026.251-.03.377-.012.613.077 2.812.335 5.144.44 2.41.109 4.194.024 5.494-.253v.089a2.384 2.384 0 01-2.385 2.366.608.608 0 00-.564.829.596.596 0 00.552.37 3.542 3.542 0 002.346-.885l.082.155a11.855 11.855 0 01.47 7.275v-.916c0-2.805-1.918-4.13-3.344-4.881a.612.612 0 00-.82.25.622.622 0 00-.06.147c-.206.779-1.046 1.7-3.854 1.7-.786 0-3.176 0-3.76-1.425l-.009-.019a.6.6 0 00-.64-.374.556.556 0 00-.238.1c-1.401.962-2.676 2.175-2.676 4.502v1.645l-.202-.454a8.704 8.704 0 01-.02-6.464zm1.423 11.12v-.805a.664.664 0 00-.642-.631h-.355a.699.699 0 01-.676-.975.7.7 0 01.676-.425h.355a.664.664 0 00.642-.63v-2.381c0-1.445.596-2.321 1.624-3.126.768 1.036 2.245 1.541 4.506 1.541 2.895 0 4.2-.922 4.751-1.904 1.467.916 2.12 1.987 2.12 3.489v2.381c0 .331.224.63.556.63h.355a.7.7 0 110 1.4h-.355c-.332 0-.557.3-.557.63v.806a6.5 6.5 0 11-13 0zm10.7 8.248v4.529a4.4 4.4 0 01-8.8 0v-4.319a1.812 1.812 0 00.7-1.44v-.355a7.538 7.538 0 003.837 1.032c1.288 0 2.563-.32 3.563-.88v.007a1.827 1.827 0 00.7 1.426zm7 23.016h-22.8v-7.657a6.788 6.788 0 003.62-5.165.601.601 0 10-1.191-.146 5.621 5.621 0 01-3.277 4.4.586.586 0 00-.352.533V48.3h-4.7V35.787a7.672 7.672 0 011.713-4.843 7.79 7.79 0 014.272-2.696 25.803 25.803 0 002.415-.692v3.843a.6.6 0 101.2 0v-4.288a20.93 20.93 0 001.536-.69l.564-.284v3.675a5.6 5.6 0 0011.2 0V25.97l.096.052c.64.352 1.31.677 2.004.975v7.644a6.703 6.703 0 003.7 6.001V48.3zm5.9 0h-4.7v-8.031a.634.634 0 00-.387-.547 5.62 5.62 0 01-3.313-5.08v-7.167c.84.31 1.71.586 2.605.82a7.758 7.758 0 015.795 7.493V48.3z"/></mask><path d="M30.984 27.133a24.16 24.16 0 01-5.524-2.163l-1.046-.565a.64.64 0 01-.34-.548v-.788c1.8-1.41 3-3.59 3-6.033v-.222a1.958 1.958 0 001.663-1.915 1.936 1.936 0 00-.816-1.565 12.821 12.821 0 00-.22-8.95l-.31-.816a3.552 3.552 0 00.382-1.574v-.895a.624.624 0 00-.851-.556c-1.859.756-7 .464-10.834-.015a2.27 2.27 0 00-.802.033 2.345 2.345 0 00-1.817 2.292 1.156 1.156 0 01-1.155 1.154 2.046 2.046 0 00-1.91 1.295l-.069.17a9.9 9.9 0 000 7.351l.255.64a1.94 1.94 0 001.083 3.351v.221a7.714 7.714 0 002.6 5.806v1.212a.615.615 0 01-.338.558l-1.465.738a22.174 22.174 0 01-4.882 1.73 8.967 8.967 0 00-6.915 8.708V48.9a.622.622 0 00.625.6h35.75a.622.622 0 00.625-.6V35.787a8.955 8.955 0 00-6.689-8.654zM11.45 5.915l.068-.17a.851.851 0 01.795-.538 2.357 2.357 0 002.355-2.354 1.148 1.148 0 01.89-1.123c.124-.026.251-.03.377-.012.613.077 2.812.335 5.144.44 2.41.109 4.194.024 5.494-.253v.089a2.384 2.384 0 01-2.385 2.366.608.608 0 00-.564.829.596.596 0 00.552.37 3.542 3.542 0 002.346-.885l.082.155a11.855 11.855 0 01.47 7.275v-.916c0-2.805-1.918-4.13-3.344-4.881a.612.612 0 00-.82.25.622.622 0 00-.06.147c-.206.779-1.046 1.7-3.854 1.7-.786 0-3.176 0-3.76-1.425l-.009-.019a.6.6 0 00-.64-.374.556.556 0 00-.238.1c-1.401.962-2.676 2.175-2.676 4.502v1.645l-.202-.454a8.704 8.704 0 01-.02-6.464zm1.423 11.12v-.805a.664.664 0 00-.642-.631h-.355a.699.699 0 01-.676-.975.7.7 0 01.676-.425h.355a.664.664 0 00.642-.63v-2.381c0-1.445.596-2.321 1.624-3.126.768 1.036 2.245 1.541 4.506 1.541 2.895 0 4.2-.922 4.751-1.904 1.467.916 2.12 1.987 2.12 3.489v2.381c0 .331.224.63.556.63h.355a.7.7 0 110 1.4h-.355c-.332 0-.557.3-.557.63v.806a6.5 6.5 0 11-13 0zm10.7 8.248v4.529a4.4 4.4 0 01-8.8 0v-4.319a1.812 1.812 0 00.7-1.44v-.355a7.538 7.538 0 003.837 1.032c1.288 0 2.563-.32 3.563-.88v.007a1.827 1.827 0 00.7 1.426zm7 23.016h-22.8v-7.657a6.788 6.788 0 003.62-5.165.601.601 0 10-1.191-.146 5.621 5.621 0 01-3.277 4.4.586.586 0 00-.352.533V48.3h-4.7V35.787a7.672 7.672 0 011.713-4.843 7.79 7.79 0 014.272-2.696 25.803 25.803 0 002.415-.692v3.843a.6.6 0 101.2 0v-4.288a20.93 20.93 0 001.536-.69l.564-.284v3.675a5.6 5.6 0 0011.2 0V25.97l.096.052c.64.352 1.31.677 2.004.975v7.644a6.703 6.703 0 003.7 6.001V48.3zm5.9 0h-4.7v-8.031a.634.634 0 00-.387-.547 5.62 5.62 0 01-3.313-5.08v-7.167c.84.31 1.71.586 2.605.82a7.758 7.758 0 015.795 7.493V48.3z" fill="#000"/><path d="M30.984 27.133a24.16 24.16 0 01-5.524-2.163l-1.046-.565a.64.64 0 01-.34-.548v-.788c1.8-1.41 3-3.59 3-6.033v-.222a1.958 1.958 0 001.663-1.915 1.936 1.936 0 00-.816-1.565 12.821 12.821 0 00-.22-8.95l-.31-.816a3.552 3.552 0 00.382-1.574v-.895a.624.624 0 00-.851-.556c-1.859.756-7 .464-10.834-.015a2.27 2.27 0 00-.802.033 2.345 2.345 0 00-1.817 2.292 1.156 1.156 0 01-1.155 1.154 2.046 2.046 0 00-1.91 1.295l-.069.17a9.9 9.9 0 000 7.351l.255.64a1.94 1.94 0 001.083 3.351v.221a7.714 7.714 0 002.6 5.806v1.212a.615.615 0 01-.338.558l-1.465.738a22.174 22.174 0 01-4.882 1.73 8.967 8.967 0 00-6.915 8.708V48.9a.622.622 0 00.625.6h35.75a.622.622 0 00.625-.6V35.787a8.955 8.955 0 00-6.689-8.654v0zM11.45 5.915l.068-.17a.851.851 0 01.795-.538 2.357 2.357 0 002.355-2.354 1.148 1.148 0 01.89-1.123c.124-.026.251-.03.377-.012.613.077 2.812.335 5.144.44 2.41.109 4.194.024 5.494-.253v.089a2.384 2.384 0 01-2.385 2.366.608.608 0 00-.564.829.596.596 0 00.552.37 3.542 3.542 0 002.346-.885l.082.155a11.855 11.855 0 01.47 7.275v-.916c0-2.805-1.918-4.13-3.344-4.881a.612.612 0 00-.82.25.622.622 0 00-.06.147c-.206.779-1.046 1.7-3.854 1.7-.786 0-3.176 0-3.76-1.425l-.009-.019a.6.6 0 00-.64-.374.556.556 0 00-.238.1c-1.401.962-2.676 2.175-2.676 4.502v1.645l-.202-.454a8.704 8.704 0 01-.02-6.464v0zm1.423 11.12v-.805a.664.664 0 00-.642-.631h-.355a.699.699 0 01-.676-.975.7.7 0 01.676-.425h.355a.664.664 0 00.642-.63v-2.381c0-1.445.596-2.321 1.624-3.126.768 1.036 2.245 1.541 4.506 1.541 2.895 0 4.2-.922 4.751-1.904 1.467.916 2.12 1.987 2.12 3.489v2.381c0 .331.224.63.556.63h.355a.7.7 0 110 1.4h-.355c-.332 0-.557.3-.557.63v.806a6.5 6.5 0 11-13 0v0zm10.7 8.248v4.529a4.4 4.4 0 01-8.8 0v-4.319a1.812 1.812 0 00.7-1.44v-.355a7.538 7.538 0 003.837 1.032c1.288 0 2.563-.32 3.563-.88v.007a1.827 1.827 0 00.7 1.426zm7 23.016h-22.8v-7.657a6.788 6.788 0 003.62-5.165.601.601 0 10-1.191-.146 5.621 5.621 0 01-3.277 4.4.586.586 0 00-.352.533V48.3h-4.7V35.787a7.672 7.672 0 011.713-4.843 7.79 7.79 0 014.272-2.696 25.803 25.803 0 002.415-.692v3.843a.6.6 0 101.2 0v-4.288a20.93 20.93 0 001.536-.69l.564-.284v3.675a5.6 5.6 0 0011.2 0V25.97l.096.052c.64.352 1.31.677 2.004.975v7.644a6.703 6.703 0 003.7 6.001V48.3zm5.9 0h-4.7v-8.031a.634.634 0 00-.387-.547 5.62 5.62 0 01-3.313-5.08v-7.167c.84.31 1.71.586 2.605.82a7.758 7.758 0 015.795 7.493V48.3z" stroke="#000" strokeWidth=".4" mask="url(#a)"/><path d="M3.84 38.353a.6.6 0 00-.6.6v7.566a.6.6 0 101.2 0v-7.566a.6.6 0 00-.6-.6zm0-2.585a.6.6 0 00-.6.6v.536a.6.6 0 001.2 0v-.536a.6.6 0 00-.6-.6z" fill="#000"/></svg>