<?xml version="1.0" encoding="UTF-8"?>
<svg version="1.1" viewBox="0 0 2048 2048" width="1280" height="1280" xmlns="http://www.w3.org/2000/svg">
<path transform="translate(1308,512)" d="m0 0h29l26 2 28 4 23 5 28 8 27 10 24 11 21 11 22 14 17 12 25 20 7 7 8 7 13 13 7 8 12 14 16 21 12 18 14 24 9 17 13 30 9 25 7 26 6 27 4 29 2 25v43l-3 34-2 13h85l22 2 23 4 25 7 27 11 19 10 24 16 16 13 10 9 15 15 9 11 10 13 11 17 10 18 9 19 7 19 6 22 5 24 3 19v46l-6 36-8 30-9 24-8 17-15 25-10 14-8 10-18 20-13 12-14 11-13 9-20 12-23 11-22 8-28 7-30 4-22 1h-756l-1-1v-883l9-10 14-15 11-11 8-7 13-11 13-10 20-14 13-8 24-13 14-7 19-8 19-7 32-9 25-5 20-3z" fill="#FE7A00"/>
<path transform="translate(768,720)" d="m0 0 10 1 29 6 29 9 22 9 17 8 20 12 1 1v769l-12 1h-115l-1-1z" fill="#FE7A01"/>
<path transform="translate(637,730)" d="m0 0 3 1v804l-12 1h-115l-1-1v-734l5-5 13-11 17-12 19-12 23-12 20-9z" fill="#FE7A01"/>
<path transform="translate(257,990)" d="m0 0h126l1 1v544l-12 1h-115l-1-1v-544z" fill="#FE7A01"/>
<path transform="translate(125,1031)" d="m0 0h3v464l-5-2-12-9-13-10-13-12-9-8-9-11-9-10-10-14-12-19-8-15-10-23-8-25-6-26-4-28v-44l5-29 5-22 10-30 16-33 18-27 9-11 13-15 11-11 8-7 15-12z" fill="#FE7B02"/>
</svg>
