<?xml version="1.0" encoding="UTF-8"?>
<svg version="1.1" viewBox="0 0 1440 1440" width="1280" height="1280" xmlns="http://www.w3.org/2000/svg">
<path transform="translate(0)" d="m0 0h1440v1440h-1440z" fill="#FCFCFC"/>
<path transform="translate(690,195)" d="m0 0h57l36 3 27 4 34 7 33 9 29 10 29 12 29 14 23 13 21 13 23 16 13 10 16 13 15 13 16 15 13 13 7 8 10 11 11 14 12 15 13 19 10 15 15 26 14 27 13 30 10 26 9 31 7 28 6 33 4 36 1 11v60l-3 34-4 28-7 34-7 26-14 41-13 30-14 28-14 24-10 16-9 13-8 11-9 12-9 11-10 11-9 11-28 28-11 9-12 11-17 13-15 11-12 8-22 14-16 9-23 12-24 11-23 9-36 12-26 7-35 7-32 4-36 3h-37l-36-3-31-4-35-7-30-8-33-11-29-12-14-6-19-10-22-12-25-16-14-10-19-14-26-22-13-12-24-24-7-8-11-13-11-14-12-16-16-24-12-20-13-24-11-23-11-27-8-23-9-30-7-31-5-30-4-38-1-14v-35l2-31 4-36 7-36 9-34 11-33 12-29 14-29 10-19 14-23 16-23 8-11 11-14 9-10 9-11 16-17 19-19 11-9 15-13 13-10 15-11 12-8 19-12 17-10 23-12 27-12 23-9 33-11 30-8 38-7 34-4z"/>
<path transform="translate(719,722)" d="m0 0 5 2 13 13 7 8 61 61 8 7 7 7v2l4 2 1 4-75 75-6 5-7 8-16 16-4-2-4-5-8-7-4-5-5-5-7-6-4-5-5-5-13-12-5-5-5-6-5-5-7-6-4-5-8-7-17-17v-5l101-101z" fill="#FCFCFC"/>
<path transform="translate(929,511)" d="m0 0 4 1 102 102-1 5-15 15-8 7-13 13-7 8-44 44-8 7-6 7-3 1-103-103v-5l78-78 8-7 9-10z" fill="#FCFCFC"/>
<path transform="translate(719,510)" d="m0 0 3 1 7 9 15 14 29 29v2l4 2v2l4 2v2l4 2 39 39 1 3-7 7h-2l-2 4h-2l-2 4-88 88-5-1-102-102 3-5 97-97z" fill="#FCFCFC"/>
<path transform="translate(507,511)" d="m0 0 5 1 9 10 91 91 1 6-8 7-92 92-2 3-4-2-6-5-4-5-8-7-4-5-5-5-7-6-4-5-5-5-13-12-5-5-5-6-5-5-7-6-4-5-8-7-4-5-6-5-3-5 93-93 2-3h2l2-4z" fill="#FCFCFC"/>
</svg>
