<?xml version="1.0" encoding="UTF-8"?>
<svg version="1.1" viewBox="0 0 2048 2048" width="1280" height="1280" xmlns="http://www.w3.org/2000/svg">
<path transform="translate(251)" d="m0 0h1546l36 7 19 5 25 9 18 8 18 10 15 10 12 9 10 8 13 12 15 15 9 11 12 16 10 16 9 16 8 17 8 21 6 21 5 24 3 18v1540l-6 34-6 24-7 20-8 18-8 16-12 20-12 16-11 13-9 10-12 12-11 9-17 13-19 12-27 14-26 10-21 6-29 6-12 2h-1541l-38-7-25-7-22-8-21-10-17-10-12-8-12-9-13-11-12-11-9-9-9-11-7-8-12-17-9-15-12-23-10-26-7-25-6-30-1-8v-1546l7-35 7-25 8-20 7-15 10-19 10-15 9-12 16-20 5-5 6-5 5-5 11-10 13-10 18-12 16-9 16-8 19-8 23-7 27-6z" fill="#3BA41E"/>
<path transform="translate(993,385)" d="m0 0h62l47 4 33 5 31 6 28 7 33 10 33 12 32 14 34 17 24 14 18 11 19 13 17 12 16 13 9 7 14 12 10 9 13 12 24 24 7 8 12 14 11 13 12 16 14 19 15 23 8 13 12 21 12 23 11 23 13 32 12 34 8 28 7 28 7 37 5 40 2 31v60l-3 38-5 36-8 40-10 38-13 38-10 25-9 21-8 16-12 23-14 24-11 17-8 12-12 17-10 13-9 11-11 13-7 8-9 10-12 13-18 18-8 7-12 11-11 9-16 13-12 9-17 12-18 12-18 11-25 14-34 17-21 9-17 7-29 10-30 9-24 6-34 7-27 4-39 4-21 1h-47l-29-2-35-4-32-5-40-9-31-9-29-10-25-10-28-12-8-4-13 2-75 18-203 48-31 7h-12l-8-4-7-8-2-5v-14l13-64 18-87 21-101 14-68v-7l-13-27-12-29-11-30-9-30-9-36-6-31-5-39-3-42v-45l3-39 4-32 6-34 9-38 11-36 8-23 12-29 11-24 12-24 14-24 9-15 14-21 12-17 11-14 9-11 11-13 11-12 12-13 20-20 8-7 11-10 10-8 12-10 20-15 17-12 23-15 22-13 22-12 16-8 21-10 27-11 34-12 39-11 36-8 38-6 33-3z" fill="#3BA41E"/>
<path transform="translate(993,385)" d="m0 0h62l47 4 33 5 31 6 28 7 33 10 33 12 32 14 34 17 24 14 18 11 19 13 17 12 16 13 9 7 14 12 10 9 13 12 24 24 7 8 12 14 11 13 12 16 14 19 15 23 8 13 12 21 12 23 11 23 13 32 12 34 8 28 7 28 7 37 5 40 2 31v60l-3 38-5 36-8 40-10 38-13 38-10 25-9 21-8 16-12 23-14 24-11 17-8 12-12 17-10 13-9 11-11 13-7 8-9 10-12 13-18 18-8 7-12 11-11 9-16 13-12 9-17 12-18 12-18 11-25 14-34 17-21 9-17 7-29 10-30 9-24 6-34 7-27 4-39 4-21 1h-47l-29-2-35-4-32-5-40-9-31-9-29-10-25-10-28-12-8-4-13 2-75 18-203 48-31 7h-12l-8-4-7-8-2-5v-14l13-64 18-87 21-101 14-68v-7l-13-27-12-29-11-30-9-30-9-36-6-31-5-39-3-42v-45l3-39 4-32 6-34 9-38 11-36 8-23 12-29 11-24 12-24 14-24 9-15 14-21 12-17 11-14 9-11 11-13 11-12 12-13 20-20 8-7 11-10 10-8 12-10 20-15 17-12 23-15 22-13 22-12 16-8 21-10 27-11 34-12 39-11 36-8 38-6 33-3zm4 136-32 3-32 5-32 7-31 9-26 9-26 11-19 9-22 12-23 14-16 11-14 10-16 13-11 9-16 15-13 12-7 8-13 14-9 11-10 12-13 18-12 18-8 13-14 25-13 27-11 27-12 36-9 36-6 33-3 28-1 15v56l2 24 5 36 6 28 8 30 10 29 11 27 16 33 16 32-1 11-15 73-17 82-7 33 1 3 19-4 113-27 60-14 7 1 14 6 16 8 29 14 19 8 27 10 26 8 33 8 35 6 32 3 15 1h38l25-2 31-4 37-7 26-7 36-12 20-8 20-9 24-12 22-13 27-18 17-13 16-13 10-9 8-7 27-27 9-11 9-10 10-13 13-18 12-18 13-21 17-33 12-27 10-27 9-30 8-36 5-35 3-34v-43l-3-37-4-28-5-26-9-34-10-30-11-27-12-25-12-22-12-20-11-16-13-18-13-16-12-14-14-15-19-19-8-7-14-12-17-13-18-13-22-14-21-12-23-12-28-12-27-10-29-9-30-7-36-6-26-3-14-1z" fill="#FEFEFE"/>
<path transform="translate(810,713)" d="m0 0h10l12 3 10 6 8 7 10 17 18 41 17 38 15 35 2 7v16l-5 13-7 11-8 10-13 17-6 9-4 9-1 5v16l3 10 8 14 10 13 9 11 11 13 15 15 7 8 9 9 8 7 8 8 8 7 14 12 15 13 14 11 18 14 19 13 19 12 15 8 14 5 5 1h8l12-3 9-5 10-9h2l2-4h2l2-4 19-19 13-9 8-3 7-1h9l15 3 68 19 48 14 14 7 10 9 6 10 3 9v19l-5 13-9 14-10 14-11 13-7 8-18 18-14 11-18 11-15 6-20 5-21 3-12 1h-30l-27-3-30-6-28-8-33-13-29-14-22-12-21-13-25-17-16-12-13-10-16-13-14-12-10-9-8-7-10-9-17-16-24-24-7-8-12-13-9-11-11-13-13-17-13-18-12-19-12-21-12-24-11-28-7-24-5-25-3-26v-21l2-21 4-17 6-16 11-20 10-14 9-11 9-10 20-20 11-9 10-6 9-3z" fill="#FEFEFE"/>
</svg>
