<?xml version="1.0" encoding="UTF-8"?>
<svg version="1.1" viewBox="0 0 1260 853" width="1280" height="1280" xmlns="http://www.w3.org/2000/svg">
<path transform="translate(511,45)" d="m0 0h225l92 2 84 3 73 4 31 3 21 4 18 6 21 11 12 9 10 9 9 9 7 10 9 16 8 20 7 23 6 27 5 46 4 54 2 46v143l-2 46-4 54-5 46-6 27-8 26-10 23-10 16-11 12-12 11-15 10-16 8-16 6-25 5-33 3-75 4-84 3-90 2-85 1h-37l-130-2-115-3-69-3-30-2-38-5-24-5-19-7-16-8-14-10-12-11-8-9-8-13-8-16-9-25-7-28-3-17-5-51-3-42-2-46v-143l2-46 4-54 5-46 6-27 8-26 9-21 9-15 8-10 13-13 15-11 21-11 18-6 21-4 31-3 73-4 85-3z" fill="#BE282A"/>
<path transform="translate(513,258)" d="m0 0 5 2 39 20 19 10 27 14 19 10 27 14 19 10 27 14 19 10 27 14 19 10 27 14 13 7-3 3-24 12-19 10-23 12-33 17-23 12-33 17-23 12-83 43-21 11h-2z" fill="#FDFDFC"/>
<path transform="translate(522,263)" d="m0 0 6 2 29 15 19 10 27 14 19 10 27 14 19 10 27 14 19 10 27 14 19 10 27 14 13 7-3 3-32 16-16-10-43-29-44-29-10-7-18-12-43-29-44-29-25-17z" fill="#EBE4E1"/>
</svg>
